<?xml version="1.0" encoding="utf-8"?>
<!-- Generator: Adobe Illustrator 24.3.0, SVG Export Plug-In . SVG Version: 6.00 Build 0)  -->
<svg version="1.1" id="Capa_1" xmlns="http://www.w3.org/2000/svg" xmlns:xlink="http://www.w3.org/1999/xlink" x="0px" y="0px"
	 viewBox="0 0 56.3 44.4" style="enable-background:new 0 0 56.3 44.4;" xml:space="preserve">
<style type="text/css">
	.st0{fill:#725F51;}
</style>
<g>
	<g>
		<g>
			<rect x="4.1" y="11.9" class="st0" width="9.3" height="19.4"/>
		</g>
		<g>
			<polyline class="st0" points="13.4,11.9 31.4,4.6 31.4,39.8 13.4,31.1 			"/>
		</g>
	</g>
	<g>
		<path class="st0" d="M43,38.9c-0.3,0-0.4-0.2-0.6-0.3c-0.3-0.3-0.3-0.9,0-1.4c5.6-5.6,8.4-11.4,7.9-17.1
			c-0.7-8.3-7.8-13.8-7.8-13.9c-0.4-0.3-0.4-0.9-0.2-1.4c0.2-0.2,0.8-0.3,1.3,0c0.3,0.3,7.9,6.1,8.5,15.2c0.4,6.2-2.3,12.6-8.5,18.6
			C43.5,38.7,43.3,38.9,43,38.9z"/>
	</g>
	<g>
		<path class="st0" d="M39.3,35.4c-0.3,0-0.4-0.2-0.6-0.3c-0.3-0.3-0.3-0.9,0-1.4c4.2-4.2,6.2-8.5,5.9-12.7
			c-0.4-6.2-5.7-10.3-5.9-10.4c-0.4-0.3-0.4-0.9-0.2-1.4c0.3-0.4,0.9-0.4,1.4-0.2c0.3,0.2,6.1,4.6,6.5,11.8
			c0.3,4.8-1.9,9.6-6.5,14.3C39.7,35.3,39.5,35.4,39.3,35.4z"/>
	</g>
	<g>
		<path class="st0" d="M36.3,29.5c-0.3,0-0.4-0.2-0.6-0.3c-0.3-0.3-0.3-0.9,0-1.4c2.1-2.1,3.2-4.4,3.1-6.5c-0.2-3.1-2.9-5.3-2.9-5.3
			c-0.4-0.3-0.4-0.9-0.2-1.4c0.3-0.4,0.9-0.4,1.4-0.2c0.2,0.2,3.4,2.6,3.8,6.7c0.2,2.8-1.1,5.4-3.6,8C36.8,29.5,36.7,29.5,36.3,29.5
			z"/>
	</g>
</g>
</svg>
