<?xml version="1.0" encoding="utf-8"?>
<!-- Generator: Adobe Illustrator 24.3.0, SVG Export Plug-In . SVG Version: 6.00 Build 0)  -->
<svg version="1.1" id="Capa_1" xmlns="http://www.w3.org/2000/svg" xmlns:xlink="http://www.w3.org/1999/xlink" x="0px" y="0px"
	 viewBox="0 0 56.3 44.4" style="enable-background:new 0 0 56.3 44.4;" xml:space="preserve">
<style type="text/css">
	.st0{opacity:0.7;fill:#13192C;enable-background:new    ;}
</style>
<path class="st0" d="M5,16.9c0,0,7.3,0.3,13.9,10c0,0,13.2,14.2,26.8,3.6c1.1-0.8,7.4-8.7,3.8-16.7c-0.6-1.3-1.3-2-2.5-3.1
	c0,0-3.1-2.4-6.7-2.7c-5.3-0.4-11.8,2.1-11.1,8.4c0,0,1.7,6,10,3.6c0,0,4.3-0.8,2.8,3.4c-0.1,0.4-1.1,1.5-1.8,2
	c-2.7,1.1-8.8,2.8-13.9-3.6C26.1,21.9,15.8,10.3,5,16.9z"/>
</svg>
