<?xml version="1.0" encoding="utf-8"?>
<!-- Generator: Adobe Illustrator 24.1.3, SVG Export Plug-In . SVG Version: 6.00 Build 0)  -->
<svg version="1.1" id="Capa_1" xmlns="http://www.w3.org/2000/svg" xmlns:xlink="http://www.w3.org/1999/xlink" x="0px" y="0px"
	 viewBox="0 0 57.4 7.4" style="enable-background:new 0 0 57.4 7.4;" xml:space="preserve">
<style type="text/css">
	.st0{fill:#13192C;}
</style>
<path class="st0" d="M1,1.9h1.8c1.5,0,3,0,4.5-0.1c1.5-0.1,3-0.2,4.5-0.3c0.6-0.1,1.3-0.2,1.9-0.3C14.3,1,15,1,15.8,1l1.3,0.7
	c0.3,0,0.6-0.1,0.8-0.4c0.2-0.2,0.6-0.4,1-0.4c0.9,0.1,1.8,0.2,2.5,0.2c0.7,0,1.5,0,2.2,0c0.5,0,1,0,1.6,0c0.6,0,1.1-0.1,1.7-0.2h3
	c0.7-0.2,1.4-0.4,2.1-0.5c0.7-0.1,1.3-0.2,1.9-0.2c0.8,0,1.5,0,2.2,0.1c0.7,0.1,1.5,0.3,2.3,0.5c0.1-0.1,0.2-0.2,0.5-0.3
	c0.3-0.2,0.5-0.2,0.7-0.3L41,1c0.2,0,0.5-0.1,0.8-0.3c0.3-0.2,0.6-0.3,1-0.3l3.4,0.3l10-0.7c0.2,0,0.4,0,0.7,0.1
	c0.3,0.1,0.4,0.4,0.5,0.8c0,0.4,0.1,0.7,0.1,1c0,0.3,0,0.6,0,0.9c0,0.5,0,0.9-0.1,1.3C57.2,4.4,57.1,4.7,57,5c-0.1,0-0.3,0-0.6,0.1
	c-0.3,0.1-0.6,0.1-0.7,0.1c0,0.1-0.1,0.2-0.3,0.2c-0.2,0.1-0.4,0.1-0.6,0.2h-0.6L52.8,6l-4-1.1l-3.6,0.7l-1.3-0.4
	c-0.3,0.1-0.5,0.2-0.7,0.3c-0.2,0.1-0.3,0.1-0.4,0.2c-0.1,0-0.2,0.1-0.2,0.1c0,0-0.1,0-0.1,0c-0.3,0-0.5,0-0.6-0.1
	c-0.1-0.1-0.3-0.2-0.5-0.4c-0.2,0.2-0.5,0.4-1,0.5c-0.5,0.2-1,0.3-1.6,0.4c-0.6,0.1-1.1,0.2-1.6,0.2c-0.5,0.1-0.9,0.1-1.1,0.1
	l-4.1-0.9c-0.3,0-0.5,0-0.8,0.1c-0.3,0.1-0.6,0.2-0.8,0.3c-0.3,0.1-0.6,0.2-0.8,0.3c-0.3,0.1-0.5,0.1-0.7,0.1c-0.3,0-0.6,0-1-0.1
	c-0.3-0.1-0.7-0.2-1-0.3c-0.3-0.1-0.7-0.2-1-0.3c-0.3-0.1-0.6-0.1-0.9-0.1c-0.6,0-1.2,0.1-1.8,0.3c-0.6,0.2-1.2,0.3-1.8,0.3L20.2,6
	c-0.6,0-1,0-1.4,0c-0.3,0-0.6,0-0.7,0c-0.2,0-0.3,0-0.3,0c0,0-0.1,0-0.2,0c-0.1,0.1-0.4,0.2-0.8,0.4c-0.5,0.2-1,0.3-1.5,0.5
	c-0.6,0.2-1.1,0.3-1.6,0.4c-0.5,0.1-0.8,0.2-1,0.2L11,6.8c-0.4,0-0.6,0-0.8,0.1C10,7,9.8,7.1,9.6,7.1L5.5,6.2C5,6.2,4.5,6.3,4,6.4
	c-0.4,0.2-1,0.3-1.6,0.3C2.4,6.5,2.2,6.3,2,6.3H1.9c-0.2,0-0.4,0-0.6,0C1.1,6.2,0.9,6.1,0.7,6C0.5,5.8,0.3,5.6,0.2,5.2
	C0.1,4.9,0,4.4,0,3.8C0,3.3,0,3,0.1,2.7C0.2,2.4,0.5,2.1,1,1.9z"/>
</svg>
