<?xml version="1.0" encoding="utf-8"?>
<!-- Generator: Adobe Illustrator 24.0.3, SVG Export Plug-In . SVG Version: 6.00 Build 0)  -->
<svg version="1.1" id="Capa_1" xmlns="http://www.w3.org/2000/svg" xmlns:xlink="http://www.w3.org/1999/xlink" x="0px" y="0px"
	 viewBox="0 0 37.6 38.1" style="enable-background:new 0 0 37.6 38.1;" xml:space="preserve">
<style type="text/css">
	.st0{fill:#FBFAF9;}
</style>
<g>
	<path class="st0" d="M12.8,28c0-0.1,0-0.1,0-0.1c0,0,0,0,0-0.1c0-0.1,0-0.2-0.1-0.3c-0.1-0.1-0.1-0.2-0.2-0.3
		c-0.1-0.1-0.2-0.2-0.2-0.3C12.2,27,12.1,27,12,26.9c-0.1,0-0.2,0-0.2-0.1c-0.1,0-0.2-0.1-0.3-0.1h-0.6c0,0-0.1,0-0.2,0.1
		c-0.1,0-0.2,0.1-0.2,0.1c-0.1,0.1-0.2,0.2-0.3,0.3c-0.1,0.1-0.2,0.3-0.3,0.4c-0.1,0.2-0.2,0.3-0.2,0.5c-0.1,0.2-0.1,0.3-0.1,0.4
		c0,0.1,0,0.2,0.1,0.3c0,0.1,0.1,0.3,0.2,0.4c0.1,0.1,0.1,0.3,0.2,0.4c0.1,0.1,0.2,0.2,0.2,0.3c0.1,0.1,0.2,0.1,0.3,0.2
		c0.1,0.1,0.3,0.1,0.4,0.1c0.1,0,0.3,0.1,0.4,0.1c0.1,0,0.3,0,0.4,0c0.1,0,0.1,0,0.1-0.1c0,0,0.1-0.1,0.1-0.1c0.1,0,0.1,0,0.1-0.1
		c0,0,0.1,0,0.1,0c0,0,0.1,0,0.1-0.1c0,0,0.1-0.1,0.1-0.1c0-0.1,0.1-0.1,0.1-0.1c0,0,0.1-0.1,0.1-0.1c0,0,0.1-0.1,0.1-0.1
		c0,0,0.1-0.1,0.1-0.2c0,0,0-0.1,0-0.1c0-0.1,0-0.1,0-0.1c0-0.1,0.1-0.2,0.1-0.2c0-0.1,0-0.1,0-0.3c0-0.1,0-0.2,0-0.3
		C13,28.2,12.9,28.1,12.8,28z"/>
	<path class="st0" d="M37.1,19.9c0-0.5,0-0.9,0-1.4c0-0.5,0-1-0.1-1.4c0-0.5-0.1-0.9-0.1-1.3c-0.1-0.5-0.2-0.9-0.3-1.2
		c-0.1-0.3-0.3-0.5-0.5-0.7c-0.2-0.2-0.4-0.4-0.7-0.6c-0.3-0.2-0.6-0.5-0.9-0.9c-0.4-0.4-0.7-0.9-0.8-1.5c-0.1-0.6-0.3-1.2-0.4-1.8
		c-0.1-0.6-0.3-1.2-0.5-1.7c-0.2-0.5-0.6-1-1.2-1.4l-1.8-0.8l-2.9-2.8c-0.5-0.4-1-0.7-1.4-1C24.9,1.3,24.5,1.1,24,1
		c-0.5-0.1-0.9-0.2-1.4-0.2c-0.5,0-1-0.1-1.6-0.1h-2.1c-0.3,0.1-0.6,0.2-0.8,0.2C17.9,1,17.7,1,17.4,1l-1.8-0.3
		c-0.7,0-1.5,0.1-2.4,0.4c-0.9,0.3-1.7,0.6-2.5,1.1c-0.8,0.5-1.7,1-2.4,1.6c-0.8,0.6-1.5,1.3-2,1.9l-3.3,5c-0.5,0.7-0.9,1.5-1.2,2.3
		c-0.3,0.8-0.5,1.6-0.6,2.4c-0.1,0.8-0.2,1.6-0.2,2.5c0,0.8,0,1.7,0,2.5v1c0,0.7,0.1,1.3,0.2,2c0.2,0.6,0.4,1.3,0.6,1.9
		c0.3,0.6,0.6,1.2,0.9,1.8c0.3,0.6,0.7,1.2,1,1.7c1,0.9,1.8,1.7,2.6,2.4s1.5,1.5,2.2,2.1c0.7,0.6,1.4,1.2,2.1,1.7
		c0.7,0.5,1.5,0.9,2.3,1.3c0.9,0.3,1.8,0.6,2.9,0.8c1.1,0.2,2.3,0.3,3.7,0.3H22c0.4-0.3,0.9-0.4,1.4-0.6c0.5-0.1,1-0.3,1.5-0.4
		c0.5-0.1,1-0.2,1.5-0.3c0.5-0.1,0.9-0.3,1.3-0.5c0.4-0.2,0.8-0.5,1.2-0.8c0.4-0.3,0.7-0.6,1.1-0.9c0.4-0.3,0.8-0.6,1.2-0.9
		c0.4-0.3,0.9-0.6,1.5-0.8c0,0,0.1,0,0.1,0c0.1,0,0.1,0,0.2-0.1l0.3-0.1c0.2-0.2,0.4-0.5,0.6-1s0.4-1,0.6-1.6
		c0.2-0.6,0.4-1.2,0.6-1.8c0.2-0.6,0.3-1,0.4-1.4c0-0.1,0.1-0.2,0.1-0.2c0-0.1,0.1-0.1,0.1-0.1c0.2-0.3,0.3-0.6,0.5-0.9
		c0.2-0.4,0.3-0.7,0.4-1.1c0.1-0.4,0.2-0.7,0.3-1.1c0.1-0.3,0.1-0.7,0.2-0.9v-0.7C37.1,20.8,37.1,20.4,37.1,19.9z M13.7,29
		c0,0.1,0,0.1-0.1,0.2c0,0.1,0,0.1-0.1,0.2c0,0.1,0,0.1,0,0.1c0,0,0,0.1-0.1,0.2c0,0.1-0.1,0.2-0.1,0.2c0,0.1-0.1,0.2-0.1,0.2
		c0,0.1-0.1,0.1-0.1,0.1c-0.1,0-0.2,0.1-0.2,0.1c-0.1,0-0.1,0.1-0.1,0.1c0,0-0.1,0.1-0.1,0.1c0,0-0.1,0.1-0.2,0.1
		c-0.1,0.1-0.2,0.1-0.3,0.1c-0.1,0-0.3,0-0.4,0.1h-0.3c-0.3,0-0.5,0-0.7-0.1c-0.2,0-0.3-0.1-0.5-0.2c-0.1-0.1-0.3-0.2-0.4-0.3
		c-0.1-0.1-0.3-0.3-0.5-0.5c-0.1-0.2-0.2-0.4-0.3-0.6c-0.1-0.1-0.1-0.3-0.1-0.4c0-0.3,0-0.5,0-0.8c0-0.2,0.1-0.5,0.2-0.6l0.4-0.6
		c0-0.1,0.1-0.1,0.2-0.2c0.1-0.1,0.2-0.2,0.3-0.2c0.1-0.1,0.2-0.1,0.4-0.2c0.1-0.1,0.2-0.1,0.3-0.1c0.1,0,0.1,0,0.2,0
		c0,0,0.1,0,0.1,0c0,0,0.1,0,0.1,0c0,0,0,0,0,0h0.3c0.2,0,0.3,0,0.4,0c0.1,0,0.2,0.1,0.4,0.2l0.4,0.4l0.2,0.1
		c0.1,0.1,0.1,0.1,0.2,0.2c0,0.1,0.1,0.1,0.1,0.2c0,0.1,0,0.2,0,0.2c0,0.1,0.1,0.1,0.1,0.2c0,0.1,0.1,0.1,0.1,0.1
		c0,0,0.1,0.1,0.1,0.1c0,0,0,0.1,0.1,0.1c0,0,0,0.1,0,0.2c0,0.1,0,0.2,0,0.3c0,0.2,0,0.3,0,0.4C13.7,28.9,13.7,29,13.7,29z M30,11.6
		c0,0.2-0.1,0.3-0.1,0.4c0,0.1-0.1,0.3-0.2,0.4c-0.1,0.1-0.2,0.1-0.3,0.1c-0.2,0-0.3,0-0.5,0c-0.2,0-0.4,0-0.5,0
		c-0.2,0-0.3,0-0.4-0.1c-0.2-0.1-0.3-0.1-0.4-0.3c-0.1-0.1-0.2-0.3-0.3-0.4c-0.1-0.1-0.2-0.3-0.3-0.4c-0.1-0.1-0.2-0.2-0.3-0.3
		c-0.1,0-0.1,0-0.2-0.1c0,0-0.1,0-0.1-0.1c0,0-0.1,0-0.1,0c-0.1,0-0.1,0-0.2-0.1c-0.1,0-0.2,0-0.2,0c0,0,0,0-0.1,0c0,0-0.1,0-0.1,0
		c0,0-0.1,0-0.1,0.1c0,0-0.1,0-0.1,0c-0.1,0-0.3,0.1-0.4,0.2c-0.1,0.1-0.3,0.2-0.4,0.3c-0.1,0.1-0.3,0.2-0.4,0.3
		c-0.1,0.1-0.2,0.2-0.4,0.3c-0.1,0.1-0.2,0.2-0.3,0.3c-0.1,0.1-0.2,0.2-0.4,0.4c-0.1,0.1-0.2,0.2-0.3,0.3c-0.1,0.1-0.2,0.2-0.2,0.2
		c-0.1,0.1-0.2,0.2-0.2,0.3c-0.1,0.1-0.1,0.2-0.1,0.3c0,0.1-0.1,0.2-0.1,0.3c0,0.1-0.1,0.2-0.2,0.3c0,0,0,0-0.1,0.1
		c0,0-0.1,0.1-0.1,0.1c0,0-0.1,0.1-0.1,0.1c0,0-0.1,0.1-0.1,0.1c0,0,0,0-0.1,0.1c0,0.1-0.1,0.1-0.1,0.2c0,0.1-0.1,0.1-0.1,0.2
		c0,0.1-0.1,0.1-0.1,0.1c0,0,0,0-0.1,0.1c0,0-0.1,0.1-0.1,0.1c0,0-0.1,0.1-0.1,0.1c0,0-0.1,0-0.1,0c-0.3,0.3-0.5,0.5-0.7,0.8
		c-0.2,0.3-0.4,0.6-0.6,0.9c-0.3,0.4-0.5,0.7-0.8,1.1c-0.2,0.3-0.4,0.7-0.6,1.2l0,0.1c0,0.1,0,0.1,0,0.2c0,0-0.1,0.7-0.1,0.9
		c0.5,0.1,0.9,0.1,1.2,0c0.4-0.1,0.7-0.1,1-0.2c0.3-0.1,0.6-0.1,1-0.2c0.3,0,0.7,0,1.1,0.1c0.2,0.1,0.4,0.1,0.7,0.2
		c0.3,0.1,0.5,0.1,0.6,0.2c0,0.1,0,0.2,0,0.3c0,0.2-0.1,0.3-0.1,0.5c-0.1,0.2-0.1,0.3-0.2,0.4c-0.1,0.1-0.1,0.2-0.1,0.2
		c0,0.1-0.2,0.1-0.5,0.3c-0.3,0.1-0.6,0.2-1,0.4c-0.4,0.1-0.7,0.2-1,0.3c-0.3,0.1-0.5,0.1-0.6,0.1c-0.1,0.1-0.2,0.2-0.4,0.2
		c-0.2,0-0.5,0.1-0.8,0.1c-0.3,0-0.6,0.1-0.8,0.2c-0.3,0.1-0.5,0.2-0.6,0.4c-0.2,0.2-0.5,0.4-0.9,0.6c-0.3,0.2-0.7,0.4-1.1,0.5
		c-0.4,0.1-0.7,0.2-1.1,0.2c-0.4,0-0.7-0.1-0.9-0.2c-0.1,0-0.1-0.1-0.2-0.2c-0.1-0.1-0.3-0.3-0.4-0.6c-0.1-0.3-0.2-0.7-0.3-1.1
		c0,0,0-0.1,0-0.1c-0.1-0.4-0.1-0.8-0.1-1.2c0-0.4,0-0.7,0-1l0.1-0.7c0-0.1,0-0.2-0.1-0.4c-0.1-0.2-0.2-0.4-0.2-0.6
		C12,19.4,12,19.2,11.9,19c0-0.2,0-0.3,0-0.4l0,0c-0.1-0.3-0.2-0.5-0.2-0.8c0-0.3,0-0.5,0-0.7c0-0.2,0-0.5-0.1-0.7s-0.2-0.5-0.4-0.7
		l0.6-1c0.1-0.2,0.2-0.3,0.3-0.3c0.1-0.1,0.3-0.1,0.6-0.2l0.6,0.4c0.1,0.1,0.1,0.2,0.2,0.3c0,0.1,0.1,0.1,0.1,0.2
		c0,0.1,0.1,0.2,0.1,0.3c0.1,0.1,0.1,0.3,0.3,0.5l0.4,0.6c0.1,0.1,0.1,0.1,0.1,0.2c0,0.1,0.1,0.1,0.1,0.2c0,0.1,0.1,0.2,0.1,0.4
		c0,0.1,0.1,0.3,0.1,0.6c0,0.1,0,0.2,0.1,0.3c0.1,0.1,0.1,0.3,0.2,0.5c0,0.1,0.1,0.1,0.1,0.2c0,0,0,0,0.1-0.1
		c0.1-0.1,0.2-0.2,0.3-0.3c0.1-0.1,0.2-0.2,0.3-0.3c0.1-0.1,0.2-0.2,0.2-0.2c0,0,0-0.1,0.1-0.2c0.1-0.1,0.1-0.2,0.2-0.3
		c0.1-0.1,0.1-0.2,0.2-0.3c0.1-0.1,0.1-0.1,0.1-0.2c0,0,0.1-0.1,0.1-0.1c0.1-0.1,0.1-0.1,0.2-0.2c0.1-0.1,0.1-0.1,0.2-0.2
		c0.1-0.1,0.1-0.1,0.1-0.1c0,0,0.1-0.1,0.2-0.3c0.1-0.2,0.2-0.3,0.4-0.5c0.1-0.2,0.3-0.4,0.4-0.5c0.1-0.2,0.2-0.3,0.2-0.3
		c0,0,0,0,0.1-0.1c0,0,0.1-0.1,0.1-0.1s0.1-0.1,0.1-0.1c0,0,0.1,0,0.1-0.1c0.2-0.2,0.5-0.5,0.7-0.8c0.2-0.3,0.4-0.5,0.6-0.8
		c0,0,0,0,0.1-0.1c0,0,0.1-0.1,0.1-0.1c0,0,0.1-0.1,0.1-0.1c0,0,0.1,0,0.1-0.1c0,0,0.1-0.1,0.1-0.1c0.1,0,0.1-0.1,0.1-0.1
		c0,0,0,0,0.1-0.1c0-0.1,0.1-0.1,0.1-0.2c0-0.1,0.1-0.1,0.1-0.2c0-0.1,0-0.1,0.1-0.1c0,0,0.1-0.1,0.2-0.1c0.1-0.1,0.2-0.1,0.3-0.2
		c0.1-0.1,0.2-0.1,0.3-0.2c0.1,0,0.2-0.1,0.2-0.1c0,0,0,0,0.1-0.1c0,0,0.1-0.1,0.1-0.1c0,0,0.1-0.1,0.1-0.1c0,0,0.1-0.1,0.1-0.1
		c0,0,0,0,0.1,0c0,0,0.1-0.1,0.1-0.1c0.1,0,0.1-0.1,0.1-0.1c0,0,0.1,0,0.1-0.1c0,0,0,0,0.1-0.1c0,0,0.1-0.1,0.1-0.1
		c0,0,0.1-0.1,0.1-0.1c0,0,0.1-0.1,0.1-0.1c0,0,0.1-0.1,0.2-0.1c0.1-0.1,0.2-0.1,0.4-0.2c0.1-0.1,0.3-0.1,0.4-0.2
		c0.1-0.1,0.2-0.1,0.3-0.2c0,0,0.1,0,0.1,0s0.1,0,0.1,0c0,0,0.1,0,0.1,0c0,0,0.1,0,0.1,0c0.1-0.1,0.3-0.1,0.4-0.1
		c0.1,0,0.3-0.1,0.4-0.1c0.1,0,0.3-0.1,0.4-0.1c0.1,0,0.3-0.1,0.4-0.1c0.2,0,0.5,0,0.7,0c0.2,0,0.4,0.1,0.6,0.1
		c0.2,0.1,0.4,0.1,0.6,0.2c0.2,0.1,0.4,0.2,0.6,0.3c0.1,0.1,0.2,0.2,0.2,0.3c0.1,0.1,0.1,0.2,0.2,0.2c0.1,0.1,0.1,0.1,0.1,0.2
		c0,0,0,0,0,0.1c0,0,0,0.1,0,0.1c0,0.1,0.1,0.1,0.1,0.2s0.1,0.2,0.1,0.3c0.1,0.1,0.1,0.2,0.2,0.4L30,11.6z"/>
</g>
</svg>
