<?xml version="1.0" encoding="utf-8"?>
<!-- Generator: Adobe Illustrator 24.1.3, SVG Export Plug-In . SVG Version: 6.00 Build 0)  -->
<svg version="1.1" id="Capa_1" xmlns="http://www.w3.org/2000/svg" xmlns:xlink="http://www.w3.org/1999/xlink" x="0px" y="0px"
	 viewBox="0 0 110.2 31.3" style="enable-background:new 0 0 110.2 31.3;" xml:space="preserve">
<style type="text/css">
	.st0{fill:#725F51;}
</style>
<g>
	<g>
		<path class="st0" d="M29.3,15.4c0-1-0.1-1.6-0.1-2.1c-0.1-0.5-0.2-0.8-0.3-1c-0.1-0.2-0.3-0.4-0.4-0.6c-0.2-0.1-0.4-0.3-0.6-0.5
			c-0.2-0.2-0.4-0.4-0.7-0.8c-0.3-0.4-0.6-0.8-0.7-1.3c-0.1-0.5-0.2-1-0.3-1.5c-0.1-0.5-0.2-1-0.4-1.4c-0.2-0.4-0.6-0.8-1.1-1.2
			l-1.4-0.7L21,2.2c-0.8-0.7-1.6-1.1-2.2-1.3c-0.7-0.2-1.5-0.3-2.4-0.3h-1.9c-0.1,0.1-0.2,0.2-0.3,0.2s-0.3,0.1-0.5,0.1
			c-0.2,0-0.4,0-0.7-0.1c-0.3,0-0.6-0.1-1-0.2c-0.5,0-1.1,0.2-1.8,0.5C9.4,1.4,8.6,1.8,7.9,2.2C7.1,2.7,6.4,3.2,5.7,3.7
			C5.1,4.2,4.6,4.6,4.3,5L1.7,9.1c-0.8,1.2-1.3,2.6-1.5,4.1c-0.2,1.5-0.2,3.2-0.2,5c0,0.7,0.2,1.6,0.6,2.5c0.4,0.9,0.9,2.1,1.6,3.6
			c1.2,1.1,2.2,2.1,3,3c0.9,0.9,1.7,1.6,2.6,2.2c0.9,0.6,1.9,1.1,3,1.4c1.1,0.3,2.6,0.5,4.3,0.5H17c0.7-0.3,1.5-0.5,2.3-0.6
			c0.8-0.1,1.5-0.4,2.2-0.8c0.4-0.1,0.7-0.3,1-0.6c0.2-0.2,0.5-0.5,0.7-0.8c0.2-0.3,0.5-0.6,0.9-0.9c0.4-0.3,0.8-0.6,1.4-0.8
			c0.1-0.2,0.3-0.5,0.6-0.9c0.3-0.5,0.5-0.9,0.8-1.5c0.2-0.5,0.5-1,0.7-1.5c0.2-0.5,0.4-0.9,0.5-1.2c0,0,0.1-0.2,0.2-0.5
			c0.1-0.3,0.3-0.7,0.4-1.2c0.1-0.4,0.3-0.8,0.4-1.2c0.1-0.4,0.2-0.7,0.2-0.9C29.4,17.2,29.3,16.4,29.3,15.4z M25.1,18.4
			c-0.2,0.4-0.3,0.9-0.5,1.5c0,0-0.1,0.3-0.1,0.7c0,0.4-0.1,0.7-0.1,0.9c-0.1,0.5-0.2,0.8-0.5,1.1c-0.2,0.3-0.5,0.6-0.8,0.8
			c-0.3,0.2-0.6,0.5-0.9,0.7c-0.3,0.2-0.6,0.6-0.8,0.9c-0.2,0.3-0.4,0.6-0.6,0.7c-0.2,0.1-0.3,0.3-0.5,0.4c-0.2,0.1-0.4,0.2-0.6,0.2
			c-0.2,0.1-0.5,0.2-0.9,0.3c-0.3,0.1-0.6,0.3-0.7,0.5c-0.2,0.3-0.4,0.4-0.7,0.4c-0.6,0-1.4-0.1-2.3-0.2c-0.9-0.1-1.8-0.3-2.7-0.6
			c-0.9-0.2-1.8-0.5-2.7-0.9c-0.9-0.3-1.6-0.7-2.1-1.1c-0.5-0.4-1-1-1.5-1.8c-0.5-0.8-1-1.7-1.4-2.6c-0.4-0.9-0.8-1.8-1.1-2.7
			c-0.3-0.9-0.4-1.6-0.4-2.1c0-0.8,0.2-1.7,0.6-2.7c0.4-1,0.9-2,1.5-2.9c0.6-1,1.3-1.8,2-2.6C8,6.5,8.7,5.9,9.4,5.5
			c0.4-0.2,0.9-0.5,1.5-0.8c0.6-0.3,1-0.4,1-0.4h3.5c0.7,0.4,1.2,0.7,1.7,0.8c0.5,0.1,1,0.3,1.5,0.4C19.1,5.8,19.6,6,20,6.4
			c0.5,0.4,1,0.9,1.6,1.8c0.6,0.7,1.1,1.2,1.5,1.6c0.4,0.4,0.6,1,0.6,1.9c0,0.1,0,0.2,0,0.3c0,0.1,0.1,0.4,0.2,0.7
			c0.7,0.5,1.1,1.1,1.3,1.8c0.1,0.6,0.2,1.4,0.2,2.2C25.3,17.4,25.2,18,25.1,18.4z"/>
	</g>
	<g>
		<path class="st0" d="M70.2,14.9c0-1-0.1-1.6-0.1-2.1c-0.1-0.5-0.2-0.8-0.3-1c-0.1-0.2-0.3-0.4-0.4-0.6c-0.2-0.1-0.4-0.3-0.6-0.5
			c-0.2-0.2-0.4-0.4-0.7-0.8c-0.3-0.4-0.6-0.8-0.7-1.3c-0.1-0.5-0.2-1-0.3-1.5c-0.1-0.5-0.2-1-0.4-1.4c-0.2-0.4-0.6-0.8-1.1-1.2
			L64.3,4l-2.4-2.4C61,1,60.3,0.5,59.6,0.3C58.9,0.1,58.1,0,57.2,0h-1.9c-0.1,0.1-0.2,0.2-0.3,0.2c-0.1,0.1-0.3,0.1-0.5,0.1
			c-0.2,0-0.4,0-0.7-0.1c-0.3,0-0.6-0.1-1-0.2c-0.5,0-1.1,0.2-1.8,0.5c-0.7,0.3-1.5,0.7-2.3,1.2c-0.8,0.5-1.5,0.9-2.1,1.4
			c-0.7,0.5-1.1,0.9-1.4,1.3l-2.6,4.1c-0.8,1.2-1.3,2.6-1.5,4.1c-0.2,1.5-0.2,3.2-0.2,5c0,0.7,0.2,1.6,0.6,2.5
			c0.4,0.9,0.9,2.1,1.6,3.6c1.2,1.1,2.2,2.1,3,3c0.8,0.9,1.7,1.6,2.6,2.2c0.9,0.6,1.9,1.1,3,1.4c1.1,0.3,2.6,0.5,4.3,0.5h1.9
			c0.7-0.3,1.5-0.5,2.3-0.6c0.8-0.1,1.5-0.4,2.2-0.8c0.4-0.1,0.7-0.3,1-0.6c0.2-0.2,0.5-0.5,0.7-0.8c0.2-0.3,0.5-0.6,0.9-0.9
			c0.4-0.3,0.8-0.6,1.4-0.8c0.1-0.2,0.3-0.5,0.6-0.9c0.3-0.5,0.5-0.9,0.8-1.5c0.2-0.5,0.5-1,0.7-1.5c0.2-0.5,0.4-0.9,0.5-1.2
			c0,0,0.1-0.2,0.2-0.5c0.1-0.3,0.3-0.7,0.4-1.2c0.1-0.4,0.3-0.8,0.4-1.2c0.1-0.4,0.2-0.7,0.2-0.9C70.2,16.7,70.2,15.8,70.2,14.9z
			 M65.9,17.8c-0.2,0.4-0.3,0.9-0.5,1.5c0,0-0.1,0.3-0.1,0.7c0,0.4-0.1,0.7-0.1,0.9c-0.1,0.5-0.2,0.8-0.5,1.1
			c-0.2,0.3-0.5,0.6-0.8,0.8c-0.3,0.2-0.6,0.5-0.9,0.7c-0.3,0.2-0.6,0.6-0.8,0.9c-0.2,0.3-0.4,0.6-0.6,0.7c-0.2,0.1-0.3,0.3-0.5,0.4
			c-0.2,0.1-0.4,0.2-0.6,0.2c-0.2,0.1-0.5,0.2-0.9,0.3c-0.3,0.1-0.6,0.3-0.7,0.5c-0.2,0.3-0.4,0.4-0.7,0.4c-0.6,0-1.4-0.1-2.3-0.2
			c-0.9-0.1-1.8-0.3-2.7-0.6c-0.9-0.2-1.8-0.5-2.7-0.9c-0.9-0.3-1.6-0.7-2.1-1.1c-0.5-0.4-1-1-1.5-1.8c-0.5-0.8-1-1.7-1.4-2.6
			c-0.4-0.9-0.8-1.8-1.1-2.7c-0.3-0.9-0.4-1.6-0.4-2.1c0-0.8,0.2-1.7,0.6-2.7c0.4-1,0.9-2,1.5-2.9c0.6-1,1.3-1.8,2-2.6
			c0.7-0.8,1.5-1.4,2.2-1.7c0.4-0.2,0.9-0.5,1.5-0.8c0.6-0.3,1-0.4,1-0.4h3.5C57,4.2,57.6,4.5,58,4.6c0.5,0.1,1,0.3,1.5,0.4
			c0.5,0.1,0.9,0.4,1.4,0.7c0.5,0.4,1,0.9,1.6,1.8c0.6,0.7,1.1,1.2,1.5,1.6c0.4,0.4,0.6,1,0.6,1.9c0,0.1,0,0.2,0,0.3
			c0,0.1,0.1,0.4,0.2,0.7c0.7,0.5,1.1,1.1,1.3,1.8c0.1,0.6,0.2,1.4,0.2,2.2C66.2,16.9,66.1,17.4,65.9,17.8z"/>
	</g>
	<g>
		<path class="st0" d="M110.2,14.9c0-1-0.1-1.6-0.1-2.1c-0.1-0.5-0.2-0.8-0.3-1c-0.1-0.2-0.3-0.4-0.4-0.6c-0.2-0.1-0.4-0.3-0.6-0.5
			c-0.2-0.2-0.4-0.4-0.7-0.8c-0.3-0.4-0.6-0.8-0.7-1.3c-0.1-0.5-0.2-1-0.3-1.5c-0.1-0.5-0.2-1-0.4-1.4c-0.2-0.4-0.6-0.8-1.1-1.2
			L104.2,4l-2.4-2.4c-0.8-0.7-1.6-1.1-2.2-1.3C98.9,0.1,98.1,0,97.1,0h-1.9c-0.1,0.1-0.2,0.2-0.3,0.2c-0.1,0.1-0.3,0.1-0.5,0.1
			c-0.2,0-0.4,0-0.7-0.1c-0.3,0-0.6-0.1-1-0.2c-0.5,0-1.1,0.2-1.8,0.5c-0.7,0.3-1.5,0.7-2.3,1.2c-0.8,0.5-1.5,0.9-2.1,1.4
			c-0.7,0.5-1.1,0.9-1.4,1.3l-2.6,4.1c-0.8,1.2-1.3,2.6-1.5,4.1c-0.2,1.5-0.2,3.2-0.2,5c0,0.7,0.2,1.6,0.6,2.5
			c0.4,0.9,0.9,2.1,1.6,3.6c1.2,1.1,2.2,2.1,3,3c0.8,0.9,1.7,1.6,2.6,2.2c0.9,0.6,1.9,1.1,3,1.4c1.1,0.3,2.6,0.5,4.3,0.5h1.9
			c0.7-0.3,1.5-0.5,2.3-0.6c0.8-0.1,1.5-0.4,2.2-0.8c0.4-0.1,0.7-0.3,1-0.6c0.2-0.2,0.5-0.5,0.7-0.8c0.2-0.3,0.5-0.6,0.9-0.9
			c0.4-0.3,0.8-0.6,1.4-0.8c0.1-0.2,0.3-0.5,0.6-0.9c0.3-0.5,0.5-0.9,0.8-1.5c0.2-0.5,0.5-1,0.7-1.5c0.2-0.5,0.4-0.9,0.5-1.2
			c0,0,0.1-0.2,0.2-0.5c0.1-0.3,0.3-0.7,0.4-1.2c0.1-0.4,0.3-0.8,0.4-1.2c0.1-0.4,0.2-0.7,0.2-0.9C110.2,16.7,110.2,15.8,110.2,14.9
			z M105.9,17.8c-0.2,0.4-0.3,0.9-0.5,1.5c0,0-0.1,0.3-0.1,0.7c0,0.4-0.1,0.7-0.1,0.9c-0.1,0.5-0.2,0.8-0.5,1.1
			c-0.2,0.3-0.5,0.6-0.8,0.8c-0.3,0.2-0.6,0.5-0.9,0.7c-0.3,0.2-0.6,0.6-0.8,0.9c-0.2,0.3-0.4,0.6-0.6,0.7c-0.2,0.1-0.3,0.3-0.5,0.4
			c-0.2,0.1-0.4,0.2-0.6,0.2c-0.2,0.1-0.5,0.2-0.9,0.3c-0.3,0.1-0.6,0.3-0.7,0.5c-0.2,0.3-0.4,0.4-0.7,0.4c-0.6,0-1.4-0.1-2.3-0.2
			c-0.9-0.1-1.8-0.3-2.7-0.6c-0.9-0.2-1.8-0.5-2.7-0.9c-0.9-0.3-1.6-0.7-2.1-1.1c-0.5-0.4-1-1-1.5-1.8c-0.5-0.8-1-1.7-1.4-2.6
			c-0.4-0.9-0.8-1.8-1.1-2.7c-0.3-0.9-0.4-1.6-0.4-2.1c0-0.8,0.2-1.7,0.6-2.7c0.4-1,0.9-2,1.5-2.9c0.6-1,1.3-1.8,2-2.6
			c0.7-0.8,1.5-1.4,2.2-1.7c0.4-0.2,0.9-0.5,1.5-0.8c0.6-0.3,1-0.4,1-0.4h3.5c0.7,0.4,1.2,0.7,1.7,0.8c0.5,0.1,1,0.3,1.5,0.4
			c0.5,0.1,0.9,0.4,1.4,0.7c0.5,0.4,1,0.9,1.6,1.8c0.6,0.7,1.1,1.2,1.5,1.6c0.4,0.4,0.6,1,0.6,1.9c0,0.1,0,0.2,0,0.3
			c0,0.1,0.1,0.4,0.2,0.7c0.7,0.5,1.1,1.1,1.3,1.8c0.1,0.6,0.2,1.4,0.2,2.2C106.2,16.9,106.1,17.4,105.9,17.8z"/>
	</g>
</g>
</svg>
