<?xml version="1.0" encoding="utf-8"?>
<!-- Generator: Adobe Illustrator 24.2.3, SVG Export Plug-In . SVG Version: 6.00 Build 0)  -->
<svg version="1.1" id="Capa_1" xmlns="http://www.w3.org/2000/svg" xmlns:xlink="http://www.w3.org/1999/xlink" x="0px" y="0px"
	 viewBox="0 0 248.3 74.4" style="enable-background:new 0 0 248.3 74.4;" xml:space="preserve">
<style type="text/css">
	.st0{fill:#13182C;}
</style>
<g>
	<g>
		<path class="st0" d="M66.3,36.5c-0.1-2.1-0.2-3.6-0.3-4.5c-0.2-1-0.4-1.8-0.7-2.3c-0.3-0.5-0.6-0.9-1-1.2c-0.4-0.3-0.8-0.7-1.2-1
			c-0.5-0.4-1-1-1.5-1.8c-0.7-0.8-1.2-1.8-1.4-2.8c-0.2-1-0.4-2.1-0.6-3.2c-0.2-1.1-0.5-2.1-1-3.1c-0.5-1-1.2-1.8-2.3-2.5l-3-1.5
			l-5.3-5.2c-1.8-1.5-3.5-2.4-4.9-2.9c-1.5-0.5-3.2-0.7-5.3-0.7h-4.1c-0.2,0.2-0.4,0.3-0.7,0.5s-0.6,0.2-1.1,0.2
			c-0.4,0-0.8,0-1.4-0.1C29.7,4.2,29,4,28.1,3.7c-1,0-2.3,0.4-4,1.1c-1.6,0.7-3.3,1.6-5,2.6c-1.7,1-3.3,2.1-4.7,3.2
			c-1.5,1.1-2.5,2.1-3.2,2.9l-5.6,9c-1.8,2.7-2.9,5.7-3.3,9c-0.4,3.4-0.5,7-0.5,11c0,1.6,0.4,3.5,1.2,5.6c0.8,2.1,2,4.7,3.6,7.9
			c2.6,2.5,4.8,4.7,6.6,6.6c1.9,1.9,3.8,3.5,5.8,4.9c2,1.3,4.2,2.3,6.7,3c2.5,0.7,5.7,1,9.5,1h4.1c1.6-0.6,3.4-1.1,5.1-1.3
			c1.8-0.2,3.4-0.8,4.9-1.7c0.9-0.3,1.6-0.7,2.1-1.2c0.5-0.5,1-1.1,1.6-1.8c0.5-0.6,1.2-1.3,2-2c0.8-0.7,1.8-1.3,3.1-1.9
			c0.3-0.4,0.7-1,1.3-2.1c0.6-1,1.2-2.1,1.7-3.2c0.5-1.1,1.1-2.2,1.6-3.3c0.5-1.1,0.8-1.9,1-2.5c0.1,0,0.3-0.4,0.5-1.1
			c0.3-0.7,0.6-1.6,0.9-2.5c0.3-1,0.6-1.9,0.9-2.7c0.3-0.9,0.4-1.5,0.4-2C66.5,40.5,66.4,38.6,66.3,36.5z M57,43
			c-0.4,0.8-0.7,1.9-1.1,3.3c-0.1,0.1-0.2,0.6-0.3,1.5c-0.1,0.9-0.2,1.6-0.3,1.9c-0.2,1-0.5,1.8-1,2.5c-0.5,0.6-1.1,1.2-1.7,1.7
			c-0.6,0.5-1.3,1-1.9,1.6c-0.6,0.5-1.2,1.2-1.8,2.1c-0.5,0.7-0.9,1.3-1.2,1.6c-0.4,0.3-0.7,0.6-1.1,0.8c-0.4,0.2-0.8,0.4-1.3,0.5
			c-0.5,0.1-1.2,0.4-2,0.8c-0.7,0.2-1.3,0.6-1.6,1.2c-0.4,0.6-0.9,0.9-1.6,0.9c-1.4,0-3-0.2-5-0.5c-2-0.3-4-0.8-6-1.3
			c-2.1-0.5-4-1.2-5.9-1.9c-1.9-0.7-3.5-1.6-4.7-2.5c-1.1-0.8-2.2-2.1-3.4-3.9c-1.1-1.8-2.2-3.7-3.2-5.8c-1-2.1-1.7-4.1-2.3-6
			c-0.6-2-0.9-3.5-0.9-4.7c0-1.7,0.4-3.7,1.3-5.9c0.9-2.2,2-4.3,3.3-6.4c1.3-2.1,2.8-4,4.5-5.8c1.6-1.7,3.2-3,4.8-3.8
			c0.8-0.5,1.9-1.1,3.3-1.7c1.4-0.6,2.1-0.9,2.2-0.9h7.8c1.5,0.9,2.7,1.5,3.8,1.9c1.1,0.3,2.2,0.6,3.2,1c1.1,0.3,2.1,0.9,3.1,1.6
			c1,0.8,2.1,2.1,3.4,3.9c1.3,1.5,2.4,2.7,3.2,3.6c0.9,0.9,1.3,2.3,1.3,4.1c0,0.2,0,0.4,0.1,0.8c0,0.3,0.2,0.8,0.3,1.6
			c1.6,1.2,2.5,2.5,2.8,3.9c0.3,1.4,0.5,3,0.5,4.9C57.5,40.9,57.4,42.1,57,43z"/>
	</g>
	<g>
		<path class="st0" d="M156.4,35.3c-0.1-2.1-0.2-3.6-0.3-4.5c-0.2-1-0.4-1.8-0.7-2.3c-0.3-0.5-0.6-0.9-1-1.2c-0.4-0.3-0.8-0.7-1.2-1
			c-0.5-0.4-1-1-1.5-1.8c-0.7-0.8-1.2-1.8-1.4-2.8c-0.2-1-0.4-2.1-0.6-3.2c-0.2-1.1-0.5-2.1-1-3.1c-0.5-1-1.2-1.8-2.3-2.5l-3-1.5
			L138,6.1c-1.8-1.5-3.5-2.4-4.9-2.9c-1.5-0.5-3.2-0.7-5.3-0.7h-4.1c-0.2,0.2-0.4,0.3-0.7,0.5s-0.6,0.2-1.1,0.2
			c-0.4,0-0.8,0-1.4-0.1c-0.6-0.1-1.3-0.3-2.3-0.5c-1,0-2.3,0.4-4,1.1c-1.6,0.7-3.3,1.6-5,2.6c-1.7,1-3.3,2.1-4.7,3.2
			c-1.5,1.1-2.5,2.1-3.2,2.9l-5.6,9c-1.8,2.7-2.9,5.7-3.3,9c-0.4,3.4-0.5,7-0.5,11c0,1.6,0.4,3.5,1.2,5.6c0.8,2.1,2,4.7,3.6,7.9
			c2.6,2.5,4.8,4.7,6.6,6.6c1.9,1.9,3.8,3.5,5.8,4.9c2,1.3,4.2,2.3,6.7,3c2.5,0.7,5.7,1,9.5,1h4.1c1.6-0.6,3.4-1.1,5.1-1.3
			c1.8-0.2,3.4-0.8,4.9-1.7c0.9-0.3,1.6-0.7,2.1-1.2c0.5-0.5,1-1.1,1.6-1.8c0.5-0.6,1.2-1.3,2-2c0.8-0.7,1.8-1.3,3.1-1.9
			c0.3-0.4,0.7-1,1.3-2.1c0.6-1,1.2-2.1,1.7-3.2c0.5-1.1,1.1-2.2,1.6-3.3c0.5-1.1,0.8-1.9,1-2.5c0.1,0,0.3-0.4,0.5-1.1
			c0.3-0.7,0.6-1.6,0.9-2.5c0.3-1,0.6-1.9,0.9-2.7c0.3-0.9,0.4-1.5,0.4-2C156.5,39.3,156.5,37.4,156.4,35.3z M147.1,41.7
			c-0.4,0.8-0.7,1.9-1.1,3.3c-0.1,0.1-0.2,0.6-0.3,1.5c-0.1,0.9-0.2,1.6-0.3,1.9c-0.2,1-0.5,1.8-1,2.5c-0.5,0.6-1.1,1.2-1.7,1.7
			c-0.6,0.5-1.3,1-1.9,1.6c-0.6,0.5-1.2,1.2-1.8,2.1c-0.5,0.7-0.9,1.3-1.2,1.6c-0.4,0.3-0.7,0.6-1.1,0.8c-0.4,0.2-0.8,0.4-1.3,0.5
			c-0.5,0.1-1.2,0.4-2,0.8c-0.7,0.2-1.3,0.6-1.6,1.2c-0.4,0.6-0.9,0.9-1.6,0.9c-1.4,0-3-0.2-5-0.5c-2-0.3-4-0.8-6-1.3
			c-2.1-0.5-4-1.2-5.9-1.9c-1.9-0.7-3.5-1.6-4.7-2.5c-1.1-0.8-2.2-2.1-3.4-3.9c-1.1-1.8-2.2-3.7-3.2-5.8c-1-2.1-1.7-4.1-2.3-6
			c-0.6-2-0.9-3.5-0.9-4.7c0-1.7,0.4-3.7,1.3-5.9c0.9-2.2,2-4.3,3.3-6.4c1.3-2.1,2.8-4,4.5-5.8c1.6-1.7,3.2-3,4.8-3.8
			c0.8-0.5,1.9-1.1,3.3-1.7c1.4-0.6,2.1-0.9,2.2-0.9h7.8c1.5,0.9,2.7,1.5,3.8,1.9c1.1,0.3,2.2,0.6,3.2,1c1.1,0.3,2.1,0.9,3.1,1.6
			c1,0.8,2.1,2.1,3.4,3.9c1.3,1.5,2.4,2.7,3.2,3.6c0.9,0.9,1.3,2.3,1.3,4.1c0,0.2,0,0.4,0.1,0.8c0,0.3,0.2,0.8,0.3,1.6
			c1.6,1.2,2.5,2.5,2.8,3.9c0.3,1.4,0.5,3,0.5,4.9C147.6,39.7,147.4,40.9,147.1,41.7z"/>
	</g>
	<g>
		<path class="st0" d="M244.5,35.3c-0.1-2.1-0.2-3.6-0.3-4.5c-0.2-1-0.4-1.8-0.7-2.3c-0.3-0.5-0.6-0.9-1-1.2c-0.4-0.3-0.8-0.7-1.2-1
			c-0.5-0.4-1-1-1.5-1.8c-0.7-0.8-1.2-1.8-1.4-2.8c-0.2-1-0.4-2.1-0.6-3.2c-0.2-1.1-0.5-2.1-1-3.1c-0.5-1-1.2-1.8-2.3-2.5l-3-1.5
			l-5.3-5.2c-1.8-1.5-3.5-2.4-4.9-2.9c-1.5-0.5-3.2-0.7-5.3-0.7h-4.1c-0.2,0.2-0.4,0.3-0.7,0.5c-0.3,0.1-0.6,0.2-1.1,0.2
			c-0.4,0-0.8,0-1.4-0.1c-0.6-0.1-1.3-0.3-2.3-0.5c-1,0-2.3,0.4-4,1.1c-1.6,0.7-3.3,1.6-5,2.6c-1.7,1-3.3,2.1-4.7,3.2
			c-1.5,1.1-2.5,2.1-3.2,2.9l-5.6,9c-1.8,2.7-2.9,5.7-3.3,9c-0.4,3.4-0.5,7-0.5,11c0,1.6,0.4,3.5,1.2,5.6c0.8,2.1,2,4.7,3.6,7.9
			c2.6,2.5,4.8,4.7,6.6,6.6c1.9,1.9,3.8,3.5,5.8,4.9c2,1.3,4.2,2.3,6.7,3c2.5,0.7,5.7,1,9.5,1h4.1c1.6-0.6,3.4-1.1,5.1-1.3
			c1.8-0.2,3.4-0.8,4.9-1.7c0.9-0.3,1.6-0.7,2.1-1.2c0.5-0.5,1-1.1,1.6-1.8c0.5-0.6,1.2-1.3,2-2c0.8-0.7,1.8-1.3,3.1-1.9
			c0.3-0.4,0.7-1,1.3-2.1c0.6-1,1.2-2.1,1.7-3.2c0.5-1.1,1.1-2.2,1.6-3.3c0.5-1.1,0.8-1.9,1-2.5c0.1,0,0.3-0.4,0.5-1.1
			c0.3-0.7,0.6-1.6,0.9-2.5c0.3-1,0.6-1.9,0.9-2.7c0.3-0.9,0.4-1.5,0.4-2C244.6,39.3,244.6,37.4,244.5,35.3z M235.1,41.7
			c-0.4,0.8-0.7,1.9-1.1,3.3c-0.1,0.1-0.2,0.6-0.3,1.5c-0.1,0.9-0.2,1.6-0.3,1.9c-0.2,1-0.5,1.8-1,2.5c-0.5,0.6-1.1,1.2-1.7,1.7
			c-0.6,0.5-1.3,1-1.9,1.6c-0.6,0.5-1.2,1.2-1.8,2.1c-0.5,0.7-0.9,1.3-1.2,1.6c-0.4,0.3-0.7,0.6-1.1,0.8c-0.4,0.2-0.8,0.4-1.3,0.5
			c-0.5,0.1-1.2,0.4-2,0.8c-0.7,0.2-1.3,0.6-1.6,1.2c-0.4,0.6-0.9,0.9-1.6,0.9c-1.4,0-3-0.2-5-0.5c-2-0.3-4-0.8-6-1.3
			c-2.1-0.5-4-1.2-5.9-1.9c-1.9-0.7-3.5-1.6-4.7-2.5c-1.1-0.8-2.2-2.1-3.4-3.9c-1.1-1.8-2.2-3.7-3.2-5.8c-1-2.1-1.7-4.1-2.3-6
			c-0.6-2-0.9-3.5-0.9-4.7c0-1.7,0.4-3.7,1.3-5.9c0.9-2.2,2-4.3,3.3-6.4c1.3-2.1,2.8-4,4.5-5.8c1.6-1.7,3.2-3,4.8-3.8
			c0.8-0.5,1.9-1.1,3.3-1.7c1.4-0.6,2.1-0.9,2.2-0.9h7.8c1.5,0.9,2.7,1.5,3.8,1.9c1.1,0.3,2.2,0.6,3.2,1c1.1,0.3,2.1,0.9,3.1,1.6
			c1,0.8,2.1,2.1,3.4,3.9c1.3,1.5,2.4,2.7,3.2,3.6c0.9,0.9,1.3,2.3,1.3,4.1c0,0.2,0,0.4,0.1,0.8c0,0.3,0.2,0.8,0.3,1.6
			c1.6,1.2,2.5,2.5,2.8,3.9c0.3,1.4,0.5,3,0.5,4.9C235.7,39.7,235.5,40.9,235.1,41.7z"/>
	</g>
</g>
</svg>
