<?xml version="1.0" encoding="utf-8"?>
<!-- Generator: Adobe Illustrator 24.1.3, SVG Export Plug-In . SVG Version: 6.00 Build 0)  -->
<svg version="1.1" id="Capa_1" xmlns="http://www.w3.org/2000/svg" xmlns:xlink="http://www.w3.org/1999/xlink" x="0px" y="0px"
	 viewBox="0 0 118.8 36.4" style="enable-background:new 0 0 118.8 36.4;" xml:space="preserve">
<style type="text/css">
	.st0{fill:none;}
	.st1{fill:#194C54;}
</style>
<g>
	<path class="st0" d="M37.2,13.5c0.5,0.3,0.9,0.8,1,1.5c0.3,0.8,0.5,1.4,0.6,1.8c0.1,0.5,0.3,0.9,0.5,1.2c0.2,0.3,0.4,0.7,0.7,1
		c0.3,0.3,0.7,0.7,1.4,1.1c0.7,0.5,1.3,1.1,1.8,1.7c0.5,0.6,0.9,1.2,1.4,1.8c0.4,0.6,0.9,1.1,1.5,1.6c0.6,0.5,1.3,0.8,2.2,1
		c0.3,0.1,0.9,0.2,1.7,0.3c0.8,0.1,1.3,0.2,1.4,0.3c1.2,0.4,2.2,0.7,2.9,1.1c0.7,0.3,1.8,0.5,3.3,0.6c1.6,0,3.1-0.1,4.4-0.3
		c1.3-0.3,2.5-1.1,3.6-2.4c0.7-0.1,1.1-0.2,1.4-0.3c0.3,0,0.5,0,0.7,0c1.6,0,2.9-0.3,3.7-1.1c0.8-0.8,1.9-1.7,3.3-2.8
		c1.7-1.1,2.9-2.1,3.6-3c0.7-0.9,1.2-1.8,1.6-2.7c0.3-0.9,0.6-1.9,0.9-2.9c0.3-1,0.9-2.1,1.8-3.4l0-0.8c-0.7,0.1-1.5,0.3-2.3,0.4
		c-1.2,0.2-2.3,0.3-3.4,0.4S75,9.4,74.6,9.4L66,8.2c-0.5,0-1.1,0.1-1.6,0.2c-0.6,0.1-1.1,0.3-1.7,0.4c-0.6,0.1-1.1,0.3-1.7,0.4
		c-0.5,0.1-1.1,0.2-1.5,0.2c-0.6,0-1.3-0.1-2-0.2c-0.7-0.1-1.4-0.3-2.1-0.4c-0.7-0.1-1.4-0.3-2-0.4c-0.7-0.1-1.3-0.2-1.8-0.2
		c-1.2,0-2.4,0.2-3.7,0.5c-1.3,0.3-2.5,0.5-3.8,0.5l-2.3-0.4c-1.2,0-2.1,0-2.8,0c-0.7,0-1.2,0-1.5,0c-0.3,0-0.6,0-0.7,0c0,0,0,0,0,0
		c-0.2,1.2-0.3,2.3-0.3,3.3C36.4,12.6,36.7,13.1,37.2,13.5z"/>
	<path class="st0" d="M80.6-2.7c-0.7-1.4-1.8-2.9-3.3-4.4c-1.5-1.5-3.2-2.9-5.1-4.2c-1.9-1.2-3.8-2.3-5.7-3.1
		c-2-0.8-3.7-1.3-5.3-1.3c-1.1,0-2.5,0.2-4.3,0.7c-1.8,0.5-3.6,1.1-5.5,2c-1.9,0.8-3.6,1.7-5.3,2.7c-1.6,1-2.8,2-3.6,2.9
		c-0.9,1.1-1.6,2.5-2.3,4.2c-0.6,1.5-1.2,3-1.7,4.6c0.1,0,0.3,0,0.4,0c1.9,0.2,3.7,0.3,5.2,0.3c1.5,0,3,0.1,4.5,0.1
		c1,0,2.2,0,3.3-0.1c1.2,0,2.4-0.1,3.6-0.2h6.2c1.5-0.4,2.9-0.6,4.3-0.8c1.4-0.2,2.7-0.2,4-0.2c1.6,0,3.1,0.1,4.5,0.2
		c1.4,0.1,3,0.4,4.8,0.8c0.2-0.1,0.5-0.2,1.1-0.5c0.5-0.2,1-0.4,1.4-0.4l0.5,0.1c0-0.1-0.1-0.2-0.1-0.3C81.6-0.9,81.1-1.9,80.6-2.7z
		"/>
	<path class="st1" d="M88.6,8.2c-0.2,0.1-0.3,0.1-0.4,0.1c-0.1,0-0.2,0-0.2,0c-0.6,0-1,0-1.3-0.1c-0.2-0.1-0.6-0.3-1-0.6
		c-0.3,0.3-1,0.5-2,0.8c-0.3,0.1-0.6,0.1-1,0.2l0,0.8c-0.9,1.3-1.4,2.4-1.8,3.4c-0.3,1-0.6,1.9-0.9,2.9c-0.3,0.9-0.8,1.9-1.6,2.7
		c-0.7,0.9-1.9,1.9-3.6,3c-1.3,1.1-2.4,2.1-3.3,2.8c-0.8,0.8-2.1,1.1-3.7,1.1c-0.2,0-0.4,0-0.7,0c-0.3,0-0.8,0.1-1.4,0.3
		c-1.1,1.4-2.3,2.2-3.6,2.4c-1.3,0.3-2.8,0.4-4.4,0.3c-1.5,0-2.6-0.2-3.3-0.6c-0.7-0.3-1.7-0.7-2.9-1.1c-0.1-0.1-0.5-0.2-1.4-0.3
		c-0.8-0.1-1.4-0.2-1.7-0.3c-0.9-0.2-1.6-0.5-2.2-1c-0.6-0.5-1.1-1-1.5-1.6c-0.4-0.6-0.9-1.2-1.4-1.8c-0.5-0.6-1.1-1.1-1.8-1.7
		c-0.6-0.4-1.1-0.8-1.4-1.1c-0.3-0.3-0.5-0.7-0.7-1c-0.2-0.3-0.4-0.7-0.5-1.2c-0.1-0.5-0.3-1.1-0.6-1.8c-0.1-0.7-0.5-1.2-1-1.5
		c-0.5-0.3-0.8-0.8-0.8-1.5c0-0.9,0.1-2,0.3-3.3c-0.1,0-0.2,0-0.3,0c-0.2,0.1-0.8,0.3-1.8,0.5c-1,0.2-2,0.5-3.2,0.7
		c-0.9,0.2-1.7,0.3-2.5,0.5l0,0.8c0.5,1.5,0.9,3.1,1,4.7c0.2,1.6,0.6,3.1,1.4,4.4c0.2,0.8,0.6,1.5,1.1,1.9c0.5,0.5,1,1,1.6,1.5
		c0.6,0.5,1.1,1.1,1.7,1.8c0.6,0.7,1.1,1.7,1.6,2.8c0.3,0.3,0.9,0.7,1.8,1.2c0.9,0.6,1.8,1.1,2.9,1.6c1,0.5,2,1,2.9,1.5
		c0.9,0.5,1.7,0.8,2.3,1c0,0.1,0.3,0.3,1,0.5c0.7,0.3,1.4,0.6,2.3,0.9c0.9,0.3,1.7,0.6,2.4,0.9c0.8,0.3,1.4,0.4,1.8,0.4
		c1.5,0,3.2,0,5.1,0c1.9,0,3.3-0.1,4.1-0.1c0.9-0.1,1.6-0.3,2.1-0.6c0.5-0.2,0.8-0.5,1.1-0.8c0.3-0.3,0.6-0.7,1-1.1
		c0.3-0.4,0.9-0.8,1.6-1.3c0.8-0.6,1.6-1.1,2.6-1.2c1-0.2,1.9-0.3,2.9-0.5c1-0.1,1.9-0.4,2.8-0.8c0.9-0.4,1.7-1.1,2.3-2l1.4-2.7
		l4.8-4.7c1.4-1.6,2.3-3.1,2.7-4.4c0.4-1.3,0.7-2.9,0.7-4.8l0.1-3.6c-0.3,0.1-0.6,0.2-0.8,0.2C89,8.1,88.7,8.2,88.6,8.2z"/>
	<path class="st1" d="M118.7,2.9c-0.1-0.4-0.1-0.9-0.2-1.5c-0.1-0.6-0.5-1-1-1.2c-0.6-0.1-1-0.2-1.4-0.2L95.4,1L90,0.6l-1.6-0.1
		c-0.7,0-1.4,0.1-2,0.4c-0.6,0.3-1.2,0.4-1.6,0.4l-2.6-0.7l-0.5-0.1c-0.4,0-0.8,0.2-1.4,0.4c-0.5,0.2-0.9,0.4-1.1,0.5
		C77.6,1,76,0.7,74.5,0.6c-1.4-0.1-3-0.2-4.5-0.2c-1.3,0-2.6,0.1-4,0.2c-1.4,0.2-2.8,0.4-4.3,0.8h-6.2c-1.2,0.1-2.4,0.2-3.6,0.2
		c-1.2,0-2.3,0.1-3.3,0.1c-1.4,0-2.9,0-4.5-0.1c-1.6,0-3.3-0.1-5.2-0.3c-0.1,0-0.3,0-0.4,0c-0.6,0-1.2,0.2-1.6,0.5
		c-0.5,0.3-1,0.5-1.6,0.5l-2.7-1c-1,0-2,0.1-2.9,0.2c-0.5,0-0.9,0.1-1.4,0.2c-1.3,0.2-2.7,0.3-4,0.4c-3,0.2-6.1,0.4-9.2,0.5
		C12,2.7,8.9,2.7,5.7,2.7H2C1.1,3.1,0.5,3.5,0.3,3.9C0.1,4.3,0,4.9,0,5.6c0,0.9,0.1,1.6,0.4,2.1c0.3,0.5,0.6,0.8,1,1.1
		c0.4,0.2,0.8,0.4,1.3,0.4c0.4,0,0.8,0.1,1.2,0.1H4c0.6,0,1,0.2,1.1,0.7c1.2-0.1,2.3-0.2,3.2-0.5C9.3,9.1,10.2,9,11.3,9l8.6,1.3
		c0.4,0,0.8-0.1,1.1-0.2c0.4-0.1,0.9-0.2,1.6-0.2l3.6,0.9c0.4,0,1.1-0.1,2.1-0.2c0.3,0,0.5-0.1,0.8-0.1c0.8-0.1,1.6-0.3,2.5-0.5
		c1.1-0.2,2.2-0.5,3.2-0.7c1-0.2,1.5-0.4,1.8-0.5c0.1,0,0.2,0,0.3,0c0,0,0,0,0,0c0.1,0,0.3,0,0.7,0c0.3,0,0.8,0,1.5,0
		c0.7,0,1.6,0,2.8,0l2.3,0.4c1.2,0,2.5-0.2,3.8-0.5c1.3-0.3,2.5-0.5,3.7-0.5c0.6,0,1.2,0.1,1.8,0.2c0.7,0.1,1.3,0.3,2,0.4
		c0.7,0.1,1.4,0.3,2.1,0.4c0.7,0.1,1.3,0.2,2,0.2c0.5,0,1-0.1,1.5-0.2c0.5-0.1,1.1-0.3,1.7-0.4c0.6-0.1,1.2-0.3,1.7-0.4
		c0.6-0.1,1.1-0.2,1.6-0.2l8.6,1.3c0.4,0,1.2,0,2.3-0.1s2.2-0.2,3.4-0.4c0.8-0.1,1.6-0.2,2.3-0.4c0.3-0.1,0.7-0.1,1-0.2
		c1-0.2,1.7-0.5,2-0.8c0.4,0.3,0.8,0.5,1,0.6c0.2,0.1,0.7,0.1,1.3,0.1c0.1,0,0.2,0,0.2,0c0.1,0,0.2,0,0.4-0.1
		C88.7,8.2,89,8.1,89.4,8c0.2-0.1,0.5-0.1,0.8-0.2c0.2,0,0.4-0.1,0.6-0.2l2.7,0.5l7.4-1l8.3,1.6l2.8-0.6h1.3
		c0.4-0.1,0.9-0.2,1.3-0.2c0.4-0.1,0.6-0.2,0.6-0.3c0.3,0,0.8-0.1,1.5-0.2c0.7-0.1,1.1-0.2,1.2-0.2c0.2-0.4,0.3-0.9,0.5-1.4
		c0.2-0.5,0.3-1.1,0.3-1.8C118.8,3.7,118.8,3.3,118.7,2.9z"/>
</g>
</svg>
