<?xml version="1.0" encoding="utf-8"?>
<!-- Generator: Adobe Illustrator 24.0.3, SVG Export Plug-In . SVG Version: 6.00 Build 0)  -->
<svg version="1.1" id="Capa_1" xmlns="http://www.w3.org/2000/svg" xmlns:xlink="http://www.w3.org/1999/xlink" x="0px" y="0px"
	 viewBox="0 0 34.8 43.7" style="enable-background:new 0 0 34.8 43.7;" xml:space="preserve">
<style type="text/css">
	.st0{fill:none;}
	.st1{fill:#FBFAF9;}
</style>
<g>
	<path class="st0" d="M28.2,21.1c-0.1-0.4-0.2-0.6-0.2-0.8c0-0.2,0-0.3,0-0.4c0-0.5-0.1-0.8-0.2-1.2c-0.1-0.3-0.3-0.6-0.5-0.9
		c-0.2-0.3-0.5-0.6-0.7-0.9c-0.3-0.3-0.6-0.6-0.9-1c-0.2-0.4-0.5-0.7-0.7-0.9c0.1,0,0.2-0.1,0.4-0.1c0,0,0,0,0,0
		c-0.1-0.2-0.2-0.6-0.3-0.6c0-0.1-0.2,0.6-0.2,0.4c-0.1-0.2-0.4-0.4-0.4-0.6c0.1,0.2,0.1,0.4,0.2,0.6c-0.3-0.3-0.5-0.5-0.8-0.7
		c-0.5-0.4-1.1-0.7-1.6-0.9c-0.5-0.2-1.1-0.4-1.7-0.5c-0.6-0.2-1.3-0.5-2-1h-4.1c0,0-0.1,0-0.4,0.1c-0.2,0.1-0.5,0.2-0.8,0.3
		c-0.3,0.1-0.6,0.3-0.9,0.4c-0.3,0.2-0.6,0.3-0.8,0.4c-0.8,0.4-1.7,1.1-2.5,2c-0.9,0.9-1.6,1.9-2.3,3c-0.7,1.1-1.3,2.2-1.7,3.4
		c-0.5,1.1-0.7,2.1-0.7,3c0,0.6,0.2,1.5,0.5,2.5c0.3,1,0.7,2.1,1.2,3.1c0.5,1.1,1.1,2.1,1.7,3c0.6,0.9,1.2,1.6,1.8,2
		c0.7,0.5,1.5,0.9,2.5,1.3c1,0.4,2,0.7,3,1c1,0.3,2.1,0.5,3.1,0.7c1,0.2,1.9,0.2,2.6,0.2c0.2,0,0.4,0,0.5-0.1s0.2-0.2,0.4-0.3
		c0.1-0.1,0.2-0.2,0.4-0.3c0.1-0.1,0.3-0.2,0.4-0.3c0.4-0.2,0.8-0.3,1-0.4c0.3-0.1,0.5-0.2,0.7-0.3c0.2-0.1,0.4-0.2,0.6-0.4
		c0.2-0.2,0.4-0.4,0.7-0.8c0.3-0.4,0.6-0.8,0.9-1.1c0.3-0.3,0.7-0.6,1-0.8c0.3-0.3,0.6-0.6,0.9-0.9c0.3-0.3,0.5-0.7,0.6-1.3
		c0-0.1,0-0.2,0-0.4c0-0.2,0.1-0.4,0.1-0.6c0-0.2,0.1-0.4,0.1-0.5c0-0.2,0-0.2,0-0.3c0.1-0.4,0.2-0.7,0.3-1c0.1-0.3,0.2-0.5,0.3-0.8
		c0.1-0.3,0.2-0.5,0.2-0.8c0.1-0.3,0.1-0.7,0.1-1.1c0-0.9-0.1-1.7-0.3-2.5C29.5,22.4,29,21.7,28.2,21.1z M23.2,31.7l-0.4,0.1
		c0,0,0,0-0.1,0c-0.1,0-0.1,0-0.1,0c-0.1,0-0.2,0-0.3,0.1c-0.1,0-0.2,0.1-0.3,0.1c-0.1,0-0.1,0-0.2,0c0,0-0.1-0.1-0.2-0.1
		c0,0-0.1,0-0.1,0s-0.1,0-0.2,0.1c-0.3,0-0.5,0-0.7,0c-0.2,0-0.3,0-0.4,0c-0.1,0-0.1,0-0.2,0c0,0,0,0,0,0c0,0,0,0,0,0
		c0,0,0,0-0.1,0.1c-0.1,0-0.1,0-0.2,0c-0.1,0-0.1,0-0.1,0c0,0-0.1,0-0.1,0c0,0-0.1,0-0.1,0c0,0-0.1,0-0.1,0s-0.1,0-0.2,0
		c-0.1,0-0.1,0-0.2,0c-0.1,0-0.1,0-0.1,0c-0.1,0-0.2,0.1-0.3,0.1c-0.1,0-0.2,0-0.2,0c-0.1,0-0.1,0-0.2-0.1c0,0-0.1,0-0.1,0
		c0,0,0,0-0.1,0c0,0-0.1,0-0.1,0c-0.1,0-0.2,0-0.3,0c-0.1,0-0.2,0-0.2,0c-0.1,0-0.2,0-0.2-0.1c-0.1,0-0.2,0-0.3-0.1
		c-0.1,0-0.1,0-0.2,0c-0.1,0-0.1,0-0.2,0c-0.1,0.1-0.3,0.1-0.3,0.1c-0.1,0-0.1,0-0.2,0c-0.1,0-0.2-0.1-0.3-0.1c-0.1,0-0.1,0-0.2,0
		c0,0,0,0-0.1,0c0,0-0.1,0-0.1-0.1c0,0-0.1,0-0.1-0.1s0,0,0,0c0,0-0.1,0-0.2,0c-0.1,0-0.2,0-0.3,0.1c-0.1,0-0.2,0-0.3,0.1
		c-0.1,0-0.2,0-0.2,0c0,0,0,0-0.1,0c0,0-0.1,0-0.1,0c0,0-0.1,0-0.1,0c0,0,0,0,0,0c0,0,0,0-0.1,0.1c0,0,0,0-0.1,0c0,0,0,0-0.1,0
		c-0.1,0-0.2,0-0.3,0c-0.1,0-0.1-0.1-0.2-0.1c-0.1,0-0.2,0-0.2,0c-0.1,0-0.1,0-0.2,0c0,0,0,0-0.1,0c0,0-0.1,0-0.1,0
		c-0.1,0-0.1,0.1-0.2,0.1c-0.1,0-0.1,0-0.2,0c-0.1,0-0.1,0-0.2,0c-0.1,0-0.1-0.1-0.2-0.1c0,0-0.1,0-0.1,0c0,0-0.1,0-0.1,0
		c0,0-0.1,0-0.1,0c0,0-0.1,0-0.1,0c-0.1,0-0.1,0-0.1,0c0,0-0.1,0-0.1,0c0,0,0,0-0.1,0c0,0-0.1,0-0.2,0L11,31.3c0,0,0-0.1,0-0.1
		c0-0.1,0.1-0.1,0.1-0.2c0-0.1,0.1-0.1,0.1-0.1c0,0,0.1-0.1,0.1-0.1c0.1,0,0.2,0,0.2-0.1c0.1,0,0.1,0,0.2,0c0.1,0,0.1,0,0.2,0
		c0.1,0,0.1,0,0.2,0l0.2,0c0.1,0,0.1,0,0.2,0c0.1,0,0.1,0,0.2,0l0.4,0c0,0,0,0,0,0c0,0,0,0,0.1,0c0,0,0.1,0,0.1,0c0,0,0,0,0.1,0
		l0.3-0.1c0.1,0,0.1,0,0.2,0c0.1,0,0.1,0,0.2,0c0.1,0,0.1,0,0.2,0c0.1,0,0.1,0,0.2,0c0,0,0.1,0,0.1,0c0.1,0,0.1,0,0.2,0
		c0.1,0,0.1,0,0.2,0c0.1,0,0.1,0,0.1,0c0,0,0.1,0,0.2,0c0.1,0,0.2,0,0.4,0c0.1,0,0.3,0,0.4,0c0.1,0,0.2,0,0.2,0.1c0.2,0,0.4,0,0.7,0
		c0.2,0,0.5-0.1,0.7-0.1l0.8,0.1c0.2,0,0.4,0,0.6-0.1c0.1,0,0.2,0,0.3,0c0.1,0,0.1,0,0.2,0c0,0,0.1,0,0.1,0c0.1,0,0.3,0,0.5,0
		c0.2,0,0.4,0,0.6,0c0.2,0,0.4,0,0.6,0c0.2,0,0.4,0,0.6,0c0.2,0,0.3,0,0.5,0c0.1,0,0.3,0,0.3,0c0.1,0,0.2,0,0.3,0
		c0.1,0,0.2,0.1,0.3,0.2c0,0.1,0.1,0.1,0.1,0.2c0,0.1,0,0.1,0,0.2C23.2,31.5,23.2,31.6,23.2,31.7z M23.6,29.1
		C23.6,29.1,23.6,29.1,23.6,29.1l-2.2,0c-0.1,0-0.2-0.1-0.2-0.2l-0.5-5.5c0-0.1-0.1-0.2-0.2-0.2c-0.1,0-0.1,0.1-0.2,0.1l-2.8,5.5
		c0,0.1-0.1,0.1-0.2,0.1h-0.5c-0.1,0-0.2-0.1-0.2-0.1l-2.8-5.5c-0.1-0.1-0.2-0.2-0.3-0.1c-0.1,0-0.1,0.1-0.1,0.2l-0.4,5.4
		c0,0.1-0.1,0.2-0.2,0.2h-2.2c-0.1,0-0.2-0.1-0.2-0.2c0,0,0,0,0,0l2.1-11.4c0-0.1,0.1-0.2,0.2-0.2h0.6c0.1,0,0.2,0.1,0.2,0.1
		l3.4,6.9c0.1,0.1,0.2,0.2,0.3,0.1c0.1,0,0.1-0.1,0.1-0.1l3.4-6.9c0-0.1,0.1-0.1,0.2-0.1h0.6c0.1,0,0.2,0.1,0.2,0.2l2.2,11.4
		C23.9,28.9,23.8,29,23.6,29.1z"/>
	<g>
		<path class="st0" d="M28.2,21.1c-0.1-0.4-0.2-0.6-0.2-0.8c0-0.2,0-0.3,0-0.4c0-0.5-0.1-0.8-0.2-1.2c-0.1-0.3-0.3-0.6-0.5-0.9
			c-0.2-0.3-0.5-0.6-0.7-0.9c-0.3-0.3-0.6-0.6-0.9-1c-0.2-0.4-0.5-0.7-0.7-0.9c0.1,0,0.2-0.1,0.4-0.1c0,0,0,0,0,0
			c-0.1-0.2-0.2-0.6-0.3-0.6c0-0.1-0.2,0.6-0.2,0.4c-0.1-0.2-0.4-0.4-0.4-0.6c0.1,0.2,0.1,0.4,0.2,0.6c-0.3-0.3-0.5-0.5-0.8-0.7
			c-0.5-0.4-1.1-0.7-1.6-0.9c-0.5-0.2-1.1-0.4-1.7-0.5c-0.6-0.2-1.3-0.5-2-1h-4.1c0,0-0.1,0-0.4,0.1c-0.2,0.1-0.5,0.2-0.8,0.3
			c-0.3,0.1-0.6,0.3-0.9,0.4c-0.3,0.2-0.6,0.3-0.8,0.4c-0.8,0.4-1.7,1.1-2.5,2c-0.9,0.9-1.6,1.9-2.3,3c-0.7,1.1-1.3,2.2-1.7,3.4
			c-0.5,1.1-0.7,2.1-0.7,3c0,0.6,0.2,1.5,0.5,2.5c0.3,1,0.7,2.1,1.2,3.1c0.5,1.1,1.1,2.1,1.7,3c0.6,0.9,1.2,1.6,1.8,2
			c0.7,0.5,1.5,0.9,2.5,1.3c1,0.4,2,0.7,3,1c1,0.3,2.1,0.5,3.1,0.7c1,0.2,1.9,0.2,2.6,0.2c0.2,0,0.4,0,0.5-0.1s0.2-0.2,0.4-0.3
			c0.1-0.1,0.2-0.2,0.4-0.3c0.1-0.1,0.3-0.2,0.4-0.3c0.4-0.2,0.8-0.3,1-0.4c0.3-0.1,0.5-0.2,0.7-0.3c0.2-0.1,0.4-0.2,0.6-0.4
			c0.2-0.2,0.4-0.4,0.7-0.8c0.3-0.4,0.6-0.8,0.9-1.1c0.3-0.3,0.7-0.6,1-0.8c0.3-0.3,0.6-0.6,0.9-0.9c0.3-0.3,0.5-0.7,0.6-1.3
			c0-0.1,0-0.2,0-0.4c0-0.2,0.1-0.4,0.1-0.6c0-0.2,0.1-0.4,0.1-0.5c0-0.2,0-0.2,0-0.3c0.1-0.4,0.2-0.7,0.3-1
			c0.1-0.3,0.2-0.5,0.3-0.8c0.1-0.3,0.2-0.5,0.2-0.8c0.1-0.3,0.1-0.7,0.1-1.1c0-0.9-0.1-1.7-0.3-2.5C29.5,22.4,29,21.7,28.2,21.1z"
			/>
		<path class="st1" d="M34.5,25.8c0-0.5,0-1-0.1-1.5c0-0.5-0.1-1-0.1-1.4c0-0.4,0-0.7-0.1-1c-0.1-0.5-0.2-0.9-0.4-1.2
			c-0.1-0.3-0.3-0.5-0.5-0.6c-0.2-0.2-0.4-0.3-0.6-0.5c-0.2-0.2-0.5-0.5-0.8-0.9c-0.4-0.4-0.6-0.9-0.7-1.5c-0.1-0.6-0.2-1.1-0.3-1.7
			c-0.1-0.6-0.3-1.1-0.5-1.6c-0.2-0.5-0.6-1-1.2-1.3l-0.8-0.4c0.1-0.1,0.3-0.3,0.4-0.4c0.1-0.2,0.3-0.3,0.4-0.4
			c0.1-0.1,0.2-0.2,0.2-0.2c0.2-0.2,0.4-0.5,0.5-0.8c0.1-0.3,0.2-0.6,0.3-0.8c0-0.1,0.1-0.2,0.1-0.2s0.1-0.1,0.1-0.2
			c0,0,0.1-0.1,0.2-0.1c0.1-0.1,0.2-0.1,0.3-0.2c0.1-0.1,0.2-0.2,0.3-0.2c0.1-0.1,0.1-0.1,0.2-0.1c0.1-0.1,0.2-0.2,0.3-0.3
			c0.1-0.1,0.3-0.3,0.4-0.4c0.1-0.1,0.2-0.3,0.3-0.4C32.5,7.1,32.5,7,32.5,7c0-0.1,0.1-0.1,0.1-0.2c0-0.1,0.1-0.1,0.1-0.2
			c0.3-0.5,0.7-0.9,1-1.4c0.3-0.5,0.5-1,0.6-1.5c0-0.4,0-0.7-0.1-1.1c-0.2-0.5-0.5-0.8-0.9-1.1c-0.4-0.3-0.9-0.5-1.4-0.5
			c-0.4,0-0.7,0-1,0.1c-0.4,0.1-0.7,0.3-1,0.6c-0.3,0.3-0.5,0.6-0.7,0.9c0,0.1-0.1,0.3-0.3,0.6c-0.2,0.3-0.3,0.7-0.5,1
			c-0.2,0.4-0.4,0.7-0.6,1c-0.2,0.3-0.3,0.5-0.3,0.6C27.3,6,27.2,6.3,27,6.6s-0.3,0.6-0.5,0.9c-0.2,0.3-0.3,0.6-0.4,0.9
			c-0.1,0.3-0.2,0.6-0.2,0.9c0,0.1,0,0.1,0,0.2c0,0.1,0,0.2,0,0.3c0,0.1,0,0.1,0,0.1c0,0,0,0.1,0,0.1l-0.8-0.8
			c-0.9-0.7-1.8-1.2-2.6-1.5c-0.8-0.2-1.7-0.4-2.7-0.4h-2.1c-0.1,0.1-0.2,0.2-0.4,0.3c-0.1,0.1-0.3,0.1-0.6,0.1
			c-0.2,0-0.4,0-0.7-0.1c-0.3-0.1-0.7-0.2-1.2-0.3c-0.5,0-1.2,0.2-2,0.6c-0.9,0.4-1.7,0.8-2.6,1.3C9,9.7,8.2,10.2,7.4,10.8
			c-0.8,0.6-1.3,1.1-1.6,1.5L2.9,17c-0.9,1.4-1.5,3-1.7,4.7c-0.2,1.7-0.3,3.6-0.3,5.7c0,0.9,0.2,1.9,0.6,2.9
			c0.4,1.1,1.1,2.4,1.9,4.1c1.3,1.3,2.4,2.4,3.4,3.4c1,1,2,1.8,3,2.5c1,0.7,2.2,1.2,3.5,1.6c1.3,0.4,2.9,0.6,4.9,0.6h2.1
			c0.4-0.2,0.9-0.3,1.3-0.4c0.5-0.1,0.9-0.2,1.4-0.3c0.5-0.1,0.9-0.2,1.3-0.3c0.4-0.1,0.8-0.3,1.2-0.5c0.4-0.1,0.8-0.4,1-0.6
			c0.3-0.3,0.5-0.6,0.8-0.9c0.3-0.3,0.6-0.7,1-1c0.4-0.3,0.9-0.7,1.6-1c0.2-0.2,0.4-0.6,0.7-1.1c0.3-0.5,0.6-1.1,0.9-1.6
			c0.3-0.6,0.6-1.2,0.9-1.7c0.3-0.6,0.4-1,0.5-1.3c0,0,0.1-0.2,0.3-0.6c0.1-0.4,0.3-0.8,0.5-1.3c0.2-0.5,0.3-1,0.4-1.4
			c0.1-0.5,0.2-0.8,0.2-1C34.5,26.7,34.5,26.3,34.5,25.8z M29.8,26.8c-0.1,0.3-0.1,0.6-0.2,0.8c-0.1,0.3-0.2,0.5-0.3,0.8
			c-0.1,0.3-0.2,0.6-0.3,1c0,0,0,0.1,0,0.3c0,0.2-0.1,0.3-0.1,0.5c0,0.2-0.1,0.4-0.1,0.6c0,0.2,0,0.3,0,0.4
			c-0.1,0.5-0.3,0.9-0.6,1.3c-0.3,0.3-0.6,0.6-0.9,0.9c-0.3,0.3-0.6,0.5-1,0.8c-0.3,0.3-0.6,0.6-0.9,1.1c-0.3,0.3-0.5,0.6-0.7,0.8
			c-0.2,0.2-0.4,0.3-0.6,0.4c-0.2,0.1-0.4,0.2-0.7,0.3c-0.3,0.1-0.6,0.2-1,0.4c-0.2,0.1-0.3,0.1-0.4,0.3c-0.1,0.1-0.2,0.2-0.4,0.3
			c-0.1,0.1-0.2,0.2-0.4,0.3s-0.3,0.1-0.5,0.1c-0.7,0-1.6-0.1-2.6-0.2c-1-0.2-2.1-0.4-3.1-0.7c-1-0.3-2-0.6-3-1
			c-1-0.4-1.8-0.8-2.5-1.3c-0.6-0.4-1.2-1.1-1.8-2C7.2,32,6.6,31,6.1,30c-0.5-1.1-0.9-2.1-1.2-3.1c-0.3-1-0.5-1.9-0.5-2.5
			c0-0.9,0.2-1.9,0.7-3c0.5-1.1,1-2.3,1.7-3.4c0.7-1.1,1.5-2.1,2.3-3c0.9-0.9,1.7-1.6,2.5-2c0.2-0.1,0.5-0.3,0.8-0.4
			c0.3-0.2,0.6-0.3,0.9-0.4c0.3-0.1,0.6-0.3,0.8-0.3c0.2-0.1,0.3-0.1,0.4-0.1h4.1c0.8,0.5,1.4,0.8,2,1c0.6,0.2,1.1,0.3,1.7,0.5
			c0.5,0.2,1.1,0.5,1.6,0.9c0.2,0.2,0.5,0.4,0.8,0.7c-0.1-0.2-0.1-0.4-0.2-0.6c0.1,0.2,0.4,0.4,0.4,0.6c0.1,0.1,0.2-0.5,0.2-0.4
			c0,0,0.2,0.4,0.3,0.6c0,0,0,0,0,0C25.2,14.9,25,15,24.9,15c0.2,0.3,0.5,0.6,0.7,0.9c0.3,0.4,0.6,0.7,0.9,1
			c0.3,0.3,0.5,0.6,0.7,0.9c0.2,0.3,0.4,0.6,0.5,0.9c0.1,0.3,0.2,0.7,0.2,1.2c0,0.1,0,0.3,0,0.4c0,0.2,0.1,0.4,0.2,0.8
			c0.8,0.6,1.3,1.3,1.5,2c0.2,0.8,0.3,1.6,0.3,2.5C29.9,26.1,29.9,26.5,29.8,26.8z"/>
	</g>
	<path class="st1" d="M23.1,31c-0.1-0.1-0.2-0.2-0.3-0.2c-0.1,0-0.2,0-0.3,0c-0.1,0-0.2,0-0.3,0c-0.1,0-0.3,0-0.5,0
		c-0.2,0-0.4,0-0.6,0c-0.2,0-0.4,0-0.6,0c-0.2,0-0.4,0-0.6,0c-0.2,0-0.4,0-0.5,0c0,0,0,0-0.1,0c0,0-0.1,0-0.2,0c-0.1,0-0.2,0-0.3,0
		c-0.1,0-0.3,0-0.6,0.1l-0.8-0.1c-0.2,0-0.4,0-0.7,0.1c-0.2,0-0.5,0-0.7,0c0,0-0.1-0.1-0.2-0.1c-0.1,0-0.2,0-0.4,0
		c-0.1,0-0.3,0-0.4,0c-0.1,0-0.2,0-0.2,0c0,0-0.1,0-0.1,0c-0.1,0-0.1,0-0.2,0c-0.1,0-0.1,0-0.2,0c-0.1,0-0.1,0-0.1,0
		c-0.1,0-0.1,0-0.2,0c-0.1,0-0.1,0-0.2,0c-0.1,0-0.1,0-0.2,0c-0.1,0-0.1,0-0.2,0l-0.3,0.1c0,0,0,0-0.1,0c0,0,0,0-0.1,0
		c0,0-0.1,0-0.1,0c0,0,0,0,0,0l-0.4,0c-0.1,0-0.1,0-0.2,0c-0.1,0-0.1,0-0.2,0l-0.2,0c-0.1,0-0.2,0-0.2,0c-0.1,0-0.1,0-0.2,0
		c-0.1,0-0.1,0-0.2,0c-0.1,0-0.1,0-0.2,0.1c0,0,0,0-0.1,0.1c0,0-0.1,0.1-0.1,0.1c0,0.1-0.1,0.1-0.1,0.2c0,0.1,0,0.1,0,0.1l0.3,0.4
		c0.1,0,0.1,0,0.2,0c0,0,0.1,0,0.1,0c0,0,0,0,0.1,0c0,0,0.1,0,0.1,0c0,0,0.1,0,0.1,0c0,0,0.1,0,0.1,0c0,0,0.1,0,0.1,0
		c0,0,0.1,0,0.1,0c0.1,0,0.1,0.1,0.2,0.1c0.1,0,0.1,0,0.2,0c0.1,0,0.1,0,0.2,0c0.1,0,0.1,0,0.2-0.1c0.1,0,0.1,0,0.1,0
		c0,0,0.1,0,0.1,0c0,0,0.1,0.1,0.2,0c0.1,0,0.1,0,0.2,0c0,0,0.1,0.1,0.2,0.1c0.1,0,0.2,0,0.3,0c0,0,0,0,0.1,0c0,0,0,0,0.1,0
		c0,0,0,0,0.1-0.1c0,0,0,0,0,0c0,0,0,0,0.1,0c0,0,0.1,0,0.1,0c0,0,0,0,0.1,0c0,0,0.1,0,0.2,0c0.1,0,0.2,0,0.3-0.1
		c0.1,0,0.2,0,0.3-0.1c0.1,0,0.2,0,0.2,0c0,0,0,0,0,0s0.1,0,0.1,0.1c0,0,0.1,0,0.1,0.1c0,0,0.1,0,0.1,0c0,0,0.1,0,0.2,0
		c0.1,0,0.2,0,0.3,0.1c0,0,0.1,0,0.2,0c0.1,0,0.2-0.1,0.3-0.1c0.1,0,0.1,0,0.2,0c0.1,0,0.1,0,0.2,0c0.1,0,0.2,0,0.3,0.1
		c0.1,0,0.2,0,0.2,0.1c0.1,0,0.2,0,0.2,0c0.1,0,0.2,0,0.3,0c0,0,0,0,0.1,0c0,0,0.1,0,0.1,0c0,0,0.1,0,0.1,0c0,0,0.1,0,0.2,0.1
		c0.1,0,0.1,0,0.2,0c0.1,0,0.2,0,0.3-0.1c0,0,0.1,0,0.1,0c0.1,0,0.1,0,0.2,0c0.1,0,0.1,0,0.2,0s0.1,0,0.1,0c0,0,0.1,0,0.1,0
		c0,0,0.1,0,0.1,0c0,0,0.1,0,0.1,0c0.1,0,0.1,0,0.2,0c0,0,0.1,0,0.1-0.1c0,0,0,0,0,0c0,0,0,0,0,0c0,0,0.1,0,0.2,0c0.1,0,0.2,0,0.4,0
		c0.2,0,0.4,0,0.7,0c0.1,0,0.1-0.1,0.2-0.1s0.1,0,0.1,0c0.1,0,0.1,0.1,0.2,0.1c0,0,0.1,0,0.2,0c0.1,0,0.2,0,0.3-0.1
		c0.1,0,0.2-0.1,0.3-0.1c0,0,0,0,0.1,0c0.1,0,0.1,0,0.1,0l0.4-0.1c0-0.1,0-0.2,0-0.3c0-0.1,0-0.1,0-0.2C23.2,31.1,23.2,31.1,23.1,31
		z"/>
	<path class="st1" d="M21.5,17.2h-0.6c-0.1,0-0.2,0.1-0.2,0.1l-3.4,6.9c0,0.1-0.1,0.1-0.1,0.1c-0.1,0.1-0.2,0-0.3-0.1l-3.4-6.9
		c0-0.1-0.1-0.1-0.2-0.1h-0.6c-0.1,0-0.2,0.1-0.2,0.2l-2.1,11.4c0,0,0,0,0,0c0,0.1,0.1,0.2,0.2,0.2h2.2c0.1,0,0.2-0.1,0.2-0.2
		l0.4-5.4c0-0.1,0.1-0.2,0.1-0.2c0.1-0.1,0.2,0,0.3,0.1l2.8,5.5c0,0.1,0.1,0.1,0.2,0.1h0.5c0.1,0,0.2,0,0.2-0.1l2.8-5.5
		c0-0.1,0.1-0.1,0.2-0.1c0.1,0,0.2,0.1,0.2,0.2l0.5,5.5c0,0.1,0.1,0.2,0.2,0.2h2.2c0,0,0,0,0,0c0.1,0,0.2-0.1,0.2-0.3l-2.2-11.4
		C21.7,17.3,21.6,17.2,21.5,17.2z"/>
</g>
</svg>
