<?xml version="1.0" encoding="utf-8"?>
<!-- Generator: Adobe Illustrator 24.1.3, SVG Export Plug-In . SVG Version: 6.00 Build 0)  -->
<svg version="1.1" id="Capa_1" xmlns="http://www.w3.org/2000/svg" xmlns:xlink="http://www.w3.org/1999/xlink" x="0px" y="0px"
	 viewBox="0 0 33.5 41.5" style="enable-background:new 0 0 33.5 41.5;" xml:space="preserve">
<style type="text/css">
	.st0{fill:none;}
	.st1{fill:#0F1322;}
</style>
<g>
	<path class="st0" d="M27.3,20.2c-0.1-0.4-0.2-0.6-0.2-0.8c0-0.2,0-0.3,0-0.4c0-0.5-0.1-0.8-0.2-1.2c-0.1-0.3-0.3-0.6-0.5-0.9
		c-0.2-0.3-0.5-0.6-0.7-0.9c-0.3-0.3-0.6-0.6-0.9-1c-0.2-0.4-0.5-0.7-0.7-0.9c0.1,0,0.2-0.1,0.4-0.1c0,0,0,0,0,0
		c-0.1-0.2-0.2-0.6-0.3-0.6c0-0.1-0.2,0.6-0.2,0.4c-0.1-0.2-0.4-0.4-0.4-0.6c0.1,0.2,0.1,0.4,0.2,0.6c-0.3-0.3-0.5-0.5-0.8-0.7
		c-0.5-0.4-1.1-0.7-1.6-0.9c-0.5-0.2-1.1-0.4-1.7-0.5c-0.6-0.2-1.3-0.5-2-1h-4.1c0,0-0.1,0-0.4,0.1c-0.2,0.1-0.5,0.2-0.8,0.3
		c-0.3,0.1-0.6,0.3-0.9,0.4c-0.3,0.2-0.6,0.3-0.8,0.4c-0.8,0.4-1.7,1.1-2.5,2c-0.9,0.9-1.6,1.9-2.3,3c-0.7,1.1-1.3,2.2-1.7,3.4
		c-0.5,1.1-0.7,2.1-0.7,3c0,0.6,0.2,1.5,0.5,2.5c0.3,1,0.7,2.1,1.2,3.1c0.5,1.1,1.1,2.1,1.7,3c0.6,0.9,1.2,1.6,1.8,2
		c0.7,0.5,1.5,0.9,2.5,1.3c1,0.4,2,0.7,3,1c1,0.3,2.1,0.5,3.1,0.7c1,0.2,1.9,0.2,2.6,0.2c0.2,0,0.4,0,0.5-0.1s0.2-0.2,0.4-0.3
		c0.1-0.1,0.2-0.2,0.4-0.3c0.1-0.1,0.3-0.2,0.4-0.3c0.4-0.2,0.8-0.3,1-0.4c0.3-0.1,0.5-0.2,0.7-0.3c0.2-0.1,0.4-0.2,0.6-0.4
		c0.2-0.2,0.4-0.4,0.7-0.8c0.3-0.4,0.6-0.8,0.9-1.1c0.3-0.3,0.7-0.6,1-0.8c0.3-0.3,0.6-0.6,0.9-0.9c0.3-0.3,0.5-0.7,0.6-1.3
		c0-0.1,0-0.2,0-0.4c0-0.2,0.1-0.4,0.1-0.6c0-0.2,0.1-0.4,0.1-0.5c0-0.2,0-0.2,0-0.3c0.1-0.4,0.2-0.7,0.3-1c0.1-0.3,0.2-0.5,0.3-0.8
		c0.1-0.3,0.2-0.5,0.2-0.8c0.1-0.3,0.1-0.7,0.1-1.1c0-0.9-0.1-1.7-0.3-2.5C28.6,21.5,28.1,20.8,27.3,20.2z M22.3,30.7l-0.4,0.1
		c0,0,0,0-0.1,0c-0.1,0-0.1,0-0.1,0c-0.1,0-0.2,0-0.3,0.1c-0.1,0-0.2,0.1-0.3,0.1c-0.1,0-0.1,0-0.2,0c0,0-0.1-0.1-0.2-0.1
		c0,0-0.1,0-0.1,0s-0.1,0-0.2,0.1c-0.3,0-0.5,0-0.7,0c-0.2,0-0.3,0-0.4,0c-0.1,0-0.1,0-0.2,0c0,0,0,0,0,0c0,0,0,0,0,0
		c0,0,0,0-0.1,0.1c-0.1,0-0.1,0-0.2,0c-0.1,0-0.1,0-0.1,0c0,0-0.1,0-0.1,0c0,0-0.1,0-0.1,0c0,0-0.1,0-0.1,0s-0.1,0-0.2,0
		c-0.1,0-0.1,0-0.2,0c-0.1,0-0.1,0-0.1,0c-0.1,0-0.2,0.1-0.3,0.1c-0.1,0-0.2,0-0.2,0c-0.1,0-0.1,0-0.2-0.1c0,0-0.1,0-0.1,0
		c0,0,0,0-0.1,0c0,0-0.1,0-0.1,0c-0.1,0-0.2,0-0.3,0c-0.1,0-0.2,0-0.2,0c-0.1,0-0.2,0-0.2-0.1c-0.1,0-0.2,0-0.3-0.1
		c-0.1,0-0.1,0-0.2,0c-0.1,0-0.1,0-0.2,0c-0.1,0.1-0.3,0.1-0.3,0.1c-0.1,0-0.1,0-0.2,0c-0.1,0-0.2-0.1-0.3-0.1c-0.1,0-0.1,0-0.2,0
		c0,0,0,0-0.1,0c0,0-0.1,0-0.1-0.1c0,0-0.1,0-0.1-0.1s0,0,0,0c0,0-0.1,0-0.2,0c-0.1,0-0.2,0-0.3,0.1c-0.1,0-0.2,0-0.3,0.1
		c-0.1,0-0.2,0-0.2,0c0,0,0,0-0.1,0c0,0-0.1,0-0.1,0c0,0-0.1,0-0.1,0c0,0,0,0,0,0c0,0,0,0-0.1,0.1c0,0,0,0-0.1,0c0,0,0,0-0.1,0
		c-0.1,0-0.2,0-0.3,0c-0.1,0-0.1-0.1-0.2-0.1c-0.1,0-0.2,0-0.2,0c-0.1,0-0.1,0-0.2,0c0,0,0,0-0.1,0c0,0-0.1,0-0.1,0
		c-0.1,0-0.1,0.1-0.2,0.1c-0.1,0-0.1,0-0.2,0c-0.1,0-0.1,0-0.2,0c-0.1,0-0.1-0.1-0.2-0.1c0,0-0.1,0-0.1,0c0,0-0.1,0-0.1,0
		c0,0-0.1,0-0.1,0c0,0-0.1,0-0.1,0c-0.1,0-0.1,0-0.1,0c0,0-0.1,0-0.1,0c0,0,0,0-0.1,0c0,0-0.1,0-0.2,0l-0.3-0.4c0,0,0-0.1,0-0.1
		c0-0.1,0.1-0.1,0.1-0.2c0-0.1,0.1-0.1,0.1-0.1c0,0,0.1-0.1,0.1-0.1c0.1,0,0.2,0,0.2-0.1c0.1,0,0.1,0,0.2,0c0.1,0,0.1,0,0.2,0
		c0.1,0,0.1,0,0.2,0l0.2,0c0.1,0,0.1,0,0.2,0c0.1,0,0.1,0,0.2,0l0.4,0c0,0,0,0,0,0c0,0,0,0,0.1,0c0,0,0.1,0,0.1,0c0,0,0,0,0.1,0
		l0.3-0.1c0.1,0,0.1,0,0.2,0c0.1,0,0.1,0,0.2,0c0.1,0,0.1,0,0.2,0c0.1,0,0.1,0,0.2,0c0,0,0.1,0,0.1,0c0.1,0,0.1,0,0.2,0
		c0.1,0,0.1,0,0.2,0c0.1,0,0.1,0,0.1,0c0,0,0.1,0,0.2,0c0.1,0,0.2,0,0.4,0c0.1,0,0.3,0,0.4,0c0.1,0,0.2,0,0.2,0.1c0.2,0,0.4,0,0.7,0
		c0.2,0,0.5-0.1,0.7-0.1l0.8,0.1c0.2,0,0.4,0,0.6-0.1c0.1,0,0.2,0,0.3,0c0.1,0,0.1,0,0.2,0c0,0,0.1,0,0.1,0c0.1,0,0.3,0,0.5,0
		c0.2,0,0.4,0,0.6,0c0.2,0,0.4,0,0.6,0c0.2,0,0.4,0,0.6,0c0.2,0,0.3,0,0.5,0c0.1,0,0.3,0,0.3,0c0.1,0,0.2,0,0.3,0
		c0.1,0,0.2,0.1,0.3,0.2c0,0.1,0.1,0.1,0.1,0.2c0,0.1,0,0.1,0,0.2C22.3,30.5,22.3,30.6,22.3,30.7z M22.8,28.1
		C22.8,28.1,22.7,28.1,22.8,28.1l-2.2,0c-0.1,0-0.2-0.1-0.2-0.2l-0.5-5.5c0-0.1-0.1-0.2-0.2-0.2c-0.1,0-0.1,0.1-0.2,0.1l-2.8,5.5
		c0,0.1-0.1,0.1-0.2,0.1h-0.5c-0.1,0-0.2-0.1-0.2-0.1l-2.8-5.5c-0.1-0.1-0.2-0.2-0.3-0.1c-0.1,0-0.1,0.1-0.1,0.2l-0.4,5.4
		c0,0.1-0.1,0.2-0.2,0.2H9.7c-0.1,0-0.2-0.1-0.2-0.2c0,0,0,0,0,0l2.1-11.4c0-0.1,0.1-0.2,0.2-0.2h0.6c0.1,0,0.2,0.1,0.2,0.1l3.4,6.9
		c0.1,0.1,0.2,0.2,0.3,0.1c0.1,0,0.1-0.1,0.1-0.1l3.4-6.9c0-0.1,0.1-0.1,0.2-0.1h0.6c0.1,0,0.2,0.1,0.2,0.2L23,27.9
		C23,28,22.9,28.1,22.8,28.1z"/>
	<path class="st1" d="M33.6,24.8c0-0.5,0-1-0.1-1.5c0-0.5-0.1-1-0.1-1.4c0-0.4,0-0.7-0.1-1c-0.1-0.5-0.2-0.9-0.4-1.2
		c-0.1-0.3-0.3-0.5-0.5-0.6c-0.2-0.2-0.4-0.3-0.6-0.5c-0.2-0.2-0.5-0.5-0.8-0.9c-0.4-0.4-0.6-0.9-0.7-1.5c-0.1-0.6-0.2-1.1-0.3-1.7
		c-0.1-0.6-0.3-1.1-0.5-1.6c-0.2-0.5-0.6-1-1.2-1.3l-0.8-0.4c0.1-0.1,0.3-0.3,0.4-0.4c0.1-0.2,0.3-0.3,0.4-0.4
		c0.1-0.1,0.2-0.2,0.2-0.2c0.2-0.2,0.4-0.5,0.5-0.8c0.1-0.3,0.2-0.6,0.3-0.8c0-0.1,0.1-0.2,0.1-0.2s0.1-0.1,0.1-0.2
		c0,0,0.1-0.1,0.2-0.1c0.1-0.1,0.2-0.1,0.3-0.2c0.1-0.1,0.2-0.2,0.3-0.2c0.1-0.1,0.1-0.1,0.2-0.1c0.1-0.1,0.2-0.2,0.3-0.3
		C30.9,7,31,6.8,31.2,6.7c0.1-0.1,0.2-0.3,0.3-0.4c0.1-0.1,0.1-0.2,0.2-0.2c0-0.1,0.1-0.1,0.1-0.2c0-0.1,0.1-0.1,0.1-0.2
		c0.3-0.5,0.7-0.9,1-1.4c0.3-0.5,0.5-1,0.6-1.5c0-0.4,0-0.7-0.1-1.1c-0.2-0.5-0.5-0.8-0.9-1.1C32,0.2,31.5,0.1,31,0
		c-0.4,0-0.7,0-1,0.1c-0.4,0.1-0.7,0.3-1,0.6c-0.3,0.3-0.5,0.6-0.7,0.9c0,0.1-0.1,0.3-0.3,0.6c-0.2,0.3-0.3,0.7-0.5,1
		c-0.2,0.4-0.4,0.7-0.6,1c-0.2,0.3-0.3,0.5-0.3,0.6c-0.1,0.2-0.2,0.5-0.4,0.8s-0.3,0.6-0.5,0.9c-0.2,0.3-0.3,0.6-0.4,0.9
		C25,7.7,25,7.9,24.9,8.2c0,0.1,0,0.1,0,0.2c0,0.1,0,0.2,0,0.3c0,0.1,0,0.1,0,0.1c0,0,0,0.1,0,0.1L24,8.2c-0.9-0.7-1.8-1.2-2.6-1.5
		c-0.8-0.2-1.7-0.4-2.7-0.4h-2.1c-0.1,0.1-0.2,0.2-0.4,0.3c-0.1,0.1-0.3,0.1-0.6,0.1c-0.2,0-0.4,0-0.7-0.1c-0.3-0.1-0.7-0.2-1.2-0.3
		c-0.5,0-1.2,0.2-2,0.6C10.8,7.3,9.9,7.7,9,8.2C8.1,8.8,7.3,9.3,6.6,9.9C5.8,10.5,5.3,11,5,11.4L2,16.1c-0.9,1.4-1.5,3-1.7,4.7
		C0.1,22.5,0,24.4,0,26.4c0,0.9,0.2,1.9,0.6,2.9c0.4,1.1,1.1,2.4,1.9,4.1c1.3,1.3,2.4,2.4,3.4,3.4c1,1,2,1.8,3,2.5
		c1,0.7,2.2,1.2,3.5,1.6c1.3,0.4,2.9,0.6,4.9,0.6h2.1c0.4-0.2,0.9-0.3,1.3-0.4c0.5-0.1,0.9-0.2,1.4-0.3c0.5-0.1,0.9-0.2,1.3-0.3
		c0.4-0.1,0.8-0.3,1.2-0.5c0.4-0.1,0.8-0.4,1-0.6c0.3-0.3,0.5-0.6,0.8-0.9c0.3-0.3,0.6-0.7,1-1c0.4-0.3,0.9-0.7,1.6-1
		c0.2-0.2,0.4-0.6,0.7-1.1c0.3-0.5,0.6-1.1,0.9-1.6c0.3-0.6,0.6-1.2,0.9-1.7c0.3-0.6,0.4-1,0.5-1.3c0,0,0.1-0.2,0.3-0.6
		c0.1-0.4,0.3-0.8,0.5-1.3c0.2-0.5,0.3-1,0.4-1.4c0.1-0.5,0.2-0.8,0.2-1C33.6,25.8,33.6,25.3,33.6,24.8z M28.9,25.8
		c-0.1,0.3-0.1,0.6-0.2,0.8c-0.1,0.3-0.2,0.5-0.3,0.8c-0.1,0.3-0.2,0.6-0.3,1c0,0,0,0.1,0,0.3c0,0.2-0.1,0.3-0.1,0.5
		c0,0.2-0.1,0.4-0.1,0.6c0,0.2,0,0.3,0,0.4c-0.1,0.5-0.3,0.9-0.6,1.3c-0.3,0.3-0.6,0.6-0.9,0.9c-0.3,0.3-0.6,0.5-1,0.8
		c-0.3,0.3-0.6,0.6-0.9,1.1c-0.3,0.3-0.5,0.6-0.7,0.8c-0.2,0.2-0.4,0.3-0.6,0.4c-0.2,0.1-0.4,0.2-0.7,0.3c-0.3,0.1-0.6,0.2-1,0.4
		c-0.2,0.1-0.3,0.1-0.4,0.3c-0.1,0.1-0.2,0.2-0.4,0.3c-0.1,0.1-0.2,0.2-0.4,0.3s-0.3,0.1-0.5,0.1c-0.7,0-1.6-0.1-2.6-0.2
		c-1-0.2-2.1-0.4-3.1-0.7c-1-0.3-2-0.6-3-1c-1-0.4-1.8-0.8-2.5-1.3c-0.6-0.4-1.2-1.1-1.8-2c-0.6-0.9-1.2-1.9-1.7-3
		C4.7,28,4.3,26.9,4,25.9c-0.3-1-0.5-1.9-0.5-2.5c0-0.9,0.2-1.9,0.7-3c0.5-1.1,1-2.3,1.7-3.4c0.7-1.1,1.5-2.1,2.3-3
		c0.9-0.9,1.7-1.6,2.5-2c0.2-0.1,0.5-0.3,0.8-0.4c0.3-0.2,0.6-0.3,0.9-0.4c0.3-0.1,0.6-0.3,0.8-0.3c0.2-0.1,0.3-0.1,0.4-0.1h4.1
		c0.8,0.5,1.4,0.8,2,1c0.6,0.2,1.1,0.3,1.7,0.5c0.5,0.2,1.1,0.5,1.6,0.9c0.2,0.2,0.5,0.4,0.8,0.7c-0.1-0.2-0.1-0.4-0.2-0.6
		c0.1,0.2,0.4,0.4,0.4,0.6c0.1,0.1,0.2-0.5,0.2-0.4c0,0,0.2,0.4,0.3,0.6c0,0,0,0,0,0C24.3,14,24.2,14,24,14.1
		c0.2,0.3,0.5,0.6,0.7,0.9c0.3,0.4,0.6,0.7,0.9,1c0.3,0.3,0.5,0.6,0.7,0.9c0.2,0.3,0.4,0.6,0.5,0.9c0.1,0.3,0.2,0.7,0.2,1.2
		c0,0.1,0,0.3,0,0.4c0,0.2,0.1,0.4,0.2,0.8c0.8,0.6,1.3,1.3,1.5,2c0.2,0.8,0.3,1.6,0.3,2.5C29,25.2,29,25.5,28.9,25.8z"/>
	<path class="st1" d="M22.2,30.1c-0.1-0.1-0.2-0.2-0.3-0.2c-0.1,0-0.2,0-0.3,0c-0.1,0-0.2,0-0.3,0c-0.1,0-0.3,0-0.5,0
		c-0.2,0-0.4,0-0.6,0c-0.2,0-0.4,0-0.6,0c-0.2,0-0.4,0-0.6,0c-0.2,0-0.4,0-0.5,0c0,0,0,0-0.1,0c0,0-0.1,0-0.2,0c-0.1,0-0.2,0-0.3,0
		c-0.1,0-0.3,0-0.6,0.1l-0.8-0.1c-0.2,0-0.4,0-0.7,0.1c-0.2,0-0.5,0-0.7,0c0,0-0.1-0.1-0.2-0.1c-0.1,0-0.2,0-0.4,0
		c-0.1,0-0.3,0-0.4,0c-0.1,0-0.2,0-0.2,0c0,0-0.1,0-0.1,0c-0.1,0-0.1,0-0.2,0c-0.1,0-0.1,0-0.2,0c-0.1,0-0.1,0-0.1,0
		c-0.1,0-0.1,0-0.2,0c-0.1,0-0.1,0-0.2,0c-0.1,0-0.1,0-0.2,0c-0.1,0-0.1,0-0.2,0l-0.3,0.1c0,0,0,0-0.1,0c0,0,0,0-0.1,0
		c0,0-0.1,0-0.1,0c0,0,0,0,0,0l-0.4,0c-0.1,0-0.1,0-0.2,0c-0.1,0-0.1,0-0.2,0l-0.2,0c-0.1,0-0.2,0-0.2,0c-0.1,0-0.1,0-0.2,0
		c-0.1,0-0.1,0-0.2,0c-0.1,0-0.1,0-0.2,0.1c0,0,0,0-0.1,0.1c0,0-0.1,0.1-0.1,0.1c0,0.1-0.1,0.1-0.1,0.2c0,0.1,0,0.1,0,0.1l0.3,0.4
		c0.1,0,0.1,0,0.2,0c0,0,0.1,0,0.1,0c0,0,0,0,0.1,0c0,0,0.1,0,0.1,0c0,0,0.1,0,0.1,0c0,0,0.1,0,0.1,0c0,0,0.1,0,0.1,0
		c0,0,0.1,0,0.1,0c0.1,0,0.1,0.1,0.2,0.1c0.1,0,0.1,0,0.2,0c0.1,0,0.1,0,0.2,0c0.1,0,0.1,0,0.2-0.1c0.1,0,0.1,0,0.1,0
		c0,0,0.1,0,0.1,0c0,0,0.1,0.1,0.2,0c0.1,0,0.1,0,0.2,0c0,0,0.1,0.1,0.2,0.1c0.1,0,0.2,0,0.3,0c0,0,0,0,0.1,0c0,0,0,0,0.1,0
		c0,0,0,0,0.1-0.1c0,0,0,0,0,0c0,0,0,0,0.1,0c0,0,0.1,0,0.1,0c0,0,0,0,0.1,0c0,0,0.1,0,0.2,0c0.1,0,0.2,0,0.3-0.1
		c0.1,0,0.2,0,0.3-0.1c0.1,0,0.2,0,0.2,0c0,0,0,0,0,0s0.1,0,0.1,0.1c0,0,0.1,0,0.1,0.1c0,0,0.1,0,0.1,0c0,0,0.1,0,0.2,0
		c0.1,0,0.2,0,0.3,0.1c0,0,0.1,0,0.2,0c0.1,0,0.2-0.1,0.3-0.1c0.1,0,0.1,0,0.2,0c0.1,0,0.1,0,0.2,0c0.1,0,0.2,0,0.3,0.1
		c0.1,0,0.2,0,0.2,0.1c0.1,0,0.2,0,0.2,0c0.1,0,0.2,0,0.3,0c0,0,0,0,0.1,0c0,0,0.1,0,0.1,0c0,0,0.1,0,0.1,0c0,0,0.1,0,0.2,0.1
		c0.1,0,0.1,0,0.2,0c0.1,0,0.2,0,0.3-0.1c0,0,0.1,0,0.1,0c0.1,0,0.1,0,0.2,0c0.1,0,0.1,0,0.2,0s0.1,0,0.1,0c0,0,0.1,0,0.1,0
		c0,0,0.1,0,0.1,0c0,0,0.1,0,0.1,0c0.1,0,0.1,0,0.2,0c0,0,0.1,0,0.1-0.1c0,0,0,0,0,0c0,0,0,0,0,0c0,0,0.1,0,0.2,0c0.1,0,0.2,0,0.4,0
		c0.2,0,0.4,0,0.7,0c0.1,0,0.1-0.1,0.2-0.1s0.1,0,0.1,0c0.1,0,0.1,0.1,0.2,0.1c0,0,0.1,0,0.2,0c0.1,0,0.2,0,0.3-0.1
		c0.1,0,0.2-0.1,0.3-0.1c0,0,0,0,0.1,0c0.1,0,0.1,0,0.1,0l0.4-0.1c0-0.1,0-0.2,0-0.3c0-0.1,0-0.1,0-0.2
		C22.3,30.2,22.3,30.1,22.2,30.1z"/>
	<path class="st1" d="M20.6,16.3H20c-0.1,0-0.2,0.1-0.2,0.1l-3.4,6.9c0,0.1-0.1,0.1-0.1,0.1c-0.1,0.1-0.2,0-0.3-0.1l-3.4-6.9
		c0-0.1-0.1-0.1-0.2-0.1h-0.6c-0.1,0-0.2,0.1-0.2,0.2L9.4,27.9c0,0,0,0,0,0c0,0.1,0.1,0.2,0.2,0.2h2.2c0.1,0,0.2-0.1,0.2-0.2
		l0.4-5.4c0-0.1,0.1-0.2,0.1-0.2c0.1-0.1,0.2,0,0.3,0.1l2.8,5.5c0,0.1,0.1,0.1,0.2,0.1h0.5c0.1,0,0.2,0,0.2-0.1l2.8-5.5
		c0-0.1,0.1-0.1,0.2-0.1c0.1,0,0.2,0.1,0.2,0.2l0.5,5.5c0,0.1,0.1,0.2,0.2,0.2h2.2c0,0,0,0,0,0c0.1,0,0.2-0.1,0.2-0.3l-2.2-11.4
		C20.8,16.3,20.7,16.3,20.6,16.3z"/>
</g>
</svg>
