<?xml version="1.0" encoding="utf-8"?>
<!-- Generator: Adobe Illustrator 24.1.3, SVG Export Plug-In . SVG Version: 6.00 Build 0)  -->
<svg version="1.1" id="Capa_1" xmlns="http://www.w3.org/2000/svg" xmlns:xlink="http://www.w3.org/1999/xlink" x="0px" y="0px"
	 viewBox="0 0 37.9 39.7" style="enable-background:new 0 0 37.9 39.7;" xml:space="preserve">
<style type="text/css">
	.st0{opacity:0.15;}
	.st1{fill:#FBFAF9;}
	.st2{fill:#725F51;}
</style>
<g class="st0">
	<path class="st1" d="M14.1,20.5l0-0.4c0,0,0-0.1-0.1-0.2c-0.1-0.1-0.2-0.2-0.3-0.3c-0.1-0.1-0.2-0.2-0.3-0.4
		c-0.1-0.1-0.1-0.2-0.2-0.3c-0.1-0.1-0.2-0.2-0.3-0.3c-0.1-0.1-0.2-0.2-0.3-0.2c-0.1-0.1-0.2-0.2-0.3-0.2c-0.1-0.1-0.2-0.2-0.2-0.3
		l-0.1-0.3l-0.8-0.6c-0.1-0.1-0.1-0.2-0.1-0.4c0-0.1-0.1-0.2-0.1-0.3c-0.1-0.1-0.2-0.3-0.3-0.4c-0.1-0.1-0.1-0.3-0.1-0.4
		c0-0.2,0-0.3,0.1-0.5c0.1-0.2,0.2-0.3,0.3-0.4c0.1-0.1,0.3-0.2,0.4-0.3c0.2-0.1,0.3-0.1,0.4-0.1c0.2,0,0.3,0,0.5,0.1
		c0.1,0.1,0.2,0.2,0.4,0.4c0.1,0.1,0.2,0.3,0.3,0.4c0.1,0.2,0.2,0.3,0.2,0.4c0,0.1,0.1,0.2,0.1,0.2c0,0.1,0.1,0.1,0.2,0.2
		c0.1,0,0.1,0.1,0.2,0.1c0.1,0.1,0.1,0.1,0.2,0.2c0.1,0.2,0.3,0.3,0.4,0.5c0.1,0.2,0.3,0.4,0.4,0.5c0,0.1,0,0.2,0.1,0.3
		c0.1,0.1,0.2,0.2,0.3,0.4c0.1,0.1,0.2,0.2,0.4,0.3c0.1,0.1,0.2,0.2,0.3,0.2c0.1,0.1,0.2,0.2,0.2,0.3c0,0.1,0,0.1,0,0.2
		c0,0,0,0.1,0.1,0.1c0,0,0.1,0.1,0.3,0.2c0,0,0.1,0.1,0.2,0.2c0.1,0.1,0.2,0.2,0.2,0.4c0.1,0.1,0.2,0.2,0.2,0.3
		c0.1,0.1,0.1,0.2,0.1,0.2c0,0,0,0.1,0.1,0.1c0,0.1,0.1,0.1,0.1,0.1c0.2,0.3,0.4,0.6,0.7,0.9c0.2,0.3,0.4,0.6,0.7,0.9
		c0,0.1,0.1,0.2,0.2,0.3C18.9,23,19,23,19.1,23c0.2-0.2,0.3-0.4,0.4-0.5c0.1-0.1,0.2-0.3,0.3-0.4c0.1-0.1,0.2-0.3,0.2-0.4
		c0.1-0.1,0.2-0.3,0.3-0.5c0.1-0.1,0.2-0.2,0.3-0.3c0.1-0.1,0.2-0.2,0.2-0.4c0,0,0,0,0,0c0,0,0,0,0-0.1l0-0.1
		c0.1-0.1,0.2-0.1,0.3-0.1c0.1,0,0.2-0.1,0.2-0.2c0-0.1,0-0.2,0.1-0.3c0.1-0.1,0.1-0.2,0.2-0.3c0.1-0.1,0.2-0.2,0.3-0.2
		c0.1-0.1,0.2-0.1,0.2-0.2l0.6-0.8c0,0,0-0.1,0.1-0.1c0-0.1,0.1-0.1,0.1-0.2c0.1-0.1,0.1-0.1,0.2-0.2c0.1-0.1,0.1-0.1,0.1-0.1
		c0-0.1,0.1-0.2,0.2-0.3c0.1-0.1,0.2-0.3,0.3-0.4c0.1-0.1,0.2-0.3,0.3-0.4c0.1-0.1,0.1-0.3,0.1-0.4c0.2-0.1,0.3-0.2,0.3-0.3
		c0.1-0.1,0.2-0.2,0.2-0.4c0.1-0.1,0.2-0.2,0.3-0.3c0.1-0.1,0.3-0.1,0.5-0.1c0.2,0,0.3,0.1,0.5,0.2c0.1,0.1,0.2,0.2,0.3,0.3
		c-0.1,0.1-0.2,0.2-0.2,0.3c-0.1,0.1-0.1,0.3-0.2,0.4c-0.1,0.1-0.1,0.3-0.2,0.4c-0.1,0.1-0.1,0.3-0.2,0.4c-0.1,0.1-0.1,0.2-0.2,0.2
		c-0.1,0-0.1,0.1-0.2,0.1c-0.1,0-0.1,0.1-0.2,0.2c-0.1,0.1-0.1,0.2-0.1,0.3c0,0.1-0.1,0.2-0.2,0.3c-0.1,0.1-0.3,0.2-0.4,0.3
		c-0.1,0.1-0.3,0.2-0.4,0.3c-0.1,0.1-0.2,0.2-0.2,0.3l0,0l0,0.1c-0.1,0.2-0.3,0.3-0.4,0.4c-0.1,0.1-0.2,0.2-0.2,0.2
		c-0.1,0.1-0.1,0.1-0.1,0.1c0,0,0,0.1-0.1,0.1c0,0,0,0.1,0,0.1c0,0,0,0.1,0,0.1c0,0,0,0.1,0,0.2c0,0-0.1,0.1-0.2,0.2
		c-0.1,0.1-0.1,0.1-0.2,0.2c-0.1,0.1-0.2,0.1-0.2,0.2c-0.1,0.1-0.1,0.1-0.2,0.2c-0.1,0.2-0.2,0.4-0.3,0.6s-0.2,0.2-0.2,0.3
		c-0.1,0.1-0.1,0.1-0.2,0.1c0,0-0.1,0-0.1,0.1c-0.1,0.1-0.1,0.1-0.1,0.2c0,0.1-0.1,0.1-0.1,0.2c0,0.1-0.1,0.1-0.1,0.2
		c-0.1,0.1-0.1,0.2-0.2,0.3c0,0,0,0.1-0.1,0.1c-0.1,0-0.1,0.1-0.2,0.1c-0.1,0.1-0.1,0.1-0.2,0.1c-0.1,0-0.1,0.1-0.1,0.1
		c-0.1,0.1-0.2,0.3-0.3,0.5c-0.1,0.2-0.2,0.4-0.3,0.5c-0.1,0.2-0.2,0.3-0.4,0.4c-0.1,0.1-0.3,0.2-0.5,0.2c-0.2,0-0.3,0-0.5-0.1
		c-0.1-0.1-0.3-0.2-0.4-0.4c-0.1-0.1-0.2-0.3-0.3-0.5c-0.1-0.2-0.1-0.3-0.2-0.4c0-0.1-0.1-0.1-0.1-0.2c-0.1-0.1-0.2-0.2-0.3-0.2
		c-0.1-0.1-0.2-0.1-0.3-0.2c-0.1-0.1-0.1-0.1-0.1-0.1c-0.1-0.1-0.2-0.1-0.2-0.2c-0.1-0.1-0.1-0.1-0.1-0.2c0-0.1-0.1-0.1-0.1-0.2
		c0-0.1-0.1-0.1-0.1-0.2c0,0-0.1-0.1-0.2-0.1c-0.1,0-0.2-0.1-0.3-0.2c-0.1-0.1-0.2-0.1-0.3-0.2C15,21.9,15,21.8,15,21.7
		c0,0,0,0,0-0.1c0,0,0,0,0-0.1c0-0.1-0.1-0.3-0.1-0.4c-0.1-0.1-0.1-0.2-0.2-0.3L14.1,20.5z"/>
	<g>
		<path class="st1" d="M37.9,19.2c-0.1-1.2-0.1-2.1-0.2-2.7c-0.1-0.6-0.2-1-0.4-1.3c-0.2-0.3-0.3-0.5-0.6-0.7
			c-0.2-0.2-0.5-0.4-0.7-0.6c-0.3-0.2-0.6-0.6-0.9-1c-0.4-0.5-0.7-1-0.8-1.6c-0.1-0.6-0.3-1.2-0.4-1.9c-0.1-0.6-0.3-1.2-0.6-1.8
			C33.1,7,32.6,6.5,32,6l-1.8-0.9l-3.1-3.1c-1.1-0.9-2-1.4-2.9-1.7C23.3,0.1,22.3,0,21.1,0h-2.4c-0.1,0.1-0.2,0.2-0.4,0.3
			c-0.2,0.1-0.4,0.1-0.6,0.1c-0.2,0-0.5,0-0.8-0.1C16.4,0.3,16,0.2,15.4,0c-0.6,0-1.4,0.2-2.3,0.6c-1,0.4-1.9,0.9-2.9,1.5
			C9.2,2.8,8.3,3.4,7.4,4C6.5,4.7,5.9,5.2,5.5,5.7L2.3,11c-1.1,1.6-1.7,3.3-1.9,5.3c-0.2,2-0.3,4.1-0.3,6.4c0,1,0.2,2.1,0.7,3.3
			c0.5,1.2,1.2,2.7,2.1,4.6c1.5,1.4,2.8,2.7,3.9,3.9c1.1,1.1,2.2,2.1,3.4,2.9c1.2,0.8,2.5,1.4,3.9,1.8c1.5,0.4,3.3,0.6,5.6,0.6H22
			c1-0.4,2-0.6,3-0.8c1-0.1,2-0.5,2.9-1c0.5-0.2,1-0.4,1.2-0.7c0.3-0.3,0.6-0.7,0.9-1c0.3-0.4,0.7-0.8,1.2-1.2
			c0.5-0.4,1.1-0.8,1.8-1.1c0.2-0.2,0.4-0.6,0.8-1.2c0.3-0.6,0.7-1.2,1-1.9c0.3-0.7,0.6-1.3,0.9-1.9c0.3-0.6,0.5-1.1,0.6-1.5
			c0.1,0,0.2-0.2,0.3-0.6c0.2-0.4,0.3-0.9,0.5-1.5c0.2-0.6,0.4-1.1,0.5-1.6c0.2-0.5,0.2-0.9,0.2-1.2C37.9,21.5,37.9,20.4,37.9,19.2z
			 M35.5,23.5c-0.3,0.6-0.5,1.4-0.8,2.3c-0.1,0.1-0.1,0.4-0.2,1.1c-0.1,0.6-0.1,1.1-0.2,1.4c-0.1,0.7-0.4,1.3-0.7,1.7
			c-0.4,0.5-0.8,0.9-1.2,1.2c-0.5,0.4-0.9,0.7-1.4,1.1c-0.5,0.4-0.9,0.9-1.3,1.5c-0.3,0.5-0.6,0.9-0.9,1.1c-0.3,0.2-0.5,0.4-0.8,0.6
			c-0.3,0.2-0.6,0.3-0.9,0.4c-0.4,0.1-0.8,0.3-1.4,0.5c-0.5,0.1-0.9,0.4-1.2,0.8c-0.3,0.4-0.6,0.6-1.2,0.6c-1,0-2.1-0.1-3.5-0.3
			c-1.4-0.2-2.8-0.5-4.3-0.9c-1.5-0.4-2.8-0.8-4.2-1.4c-1.3-0.5-2.4-1.1-3.3-1.7c-0.8-0.6-1.6-1.5-2.4-2.8c-0.8-1.3-1.5-2.6-2.2-4.1
			c-0.7-1.5-1.2-2.9-1.6-4.3c-0.4-1.4-0.6-2.5-0.6-3.3c0-1.2,0.3-2.6,0.9-4.2c0.6-1.5,1.4-3.1,2.3-4.5c0.9-1.5,2-2.8,3.1-4.1
			c1.2-1.2,2.3-2.1,3.4-2.7c0.6-0.4,1.4-0.8,2.3-1.2c1-0.4,1.5-0.6,1.5-0.6h5.5c1,0.6,1.9,1.1,2.7,1.3c0.8,0.2,1.5,0.5,2.3,0.7
			c0.7,0.2,1.5,0.6,2.2,1.2c0.7,0.5,1.5,1.5,2.4,2.8c0.9,1,1.7,1.9,2.3,2.5c0.6,0.6,0.9,1.6,0.9,2.9c0,0.1,0,0.3,0,0.5
			c0,0.2,0.1,0.6,0.2,1.1c1.1,0.8,1.8,1.8,2,2.8c0.2,1,0.3,2.1,0.3,3.4C35.9,22.1,35.7,23,35.5,23.5z"/>
	</g>
</g>
<g>
	<path class="st2" d="M319.8,442.2l0,0.4c0,0,0,0.1,0.1,0.2c0.1,0.1,0.2,0.2,0.3,0.3c0.1,0.1,0.2,0.2,0.3,0.4
		c0.1,0.1,0.1,0.2,0.2,0.3c0.1,0.1,0.2,0.2,0.3,0.3c0.1,0.1,0.2,0.2,0.3,0.2s0.2,0.2,0.3,0.2c0.1,0.1,0.2,0.2,0.2,0.3l0.1,0.3
		l0.8,0.6c0.1,0.1,0.1,0.2,0.1,0.4c0,0.1,0.1,0.2,0.1,0.3c0.1,0.1,0.2,0.3,0.3,0.4c0.1,0.1,0.1,0.3,0.1,0.4c0,0.2,0,0.3-0.1,0.5
		c-0.1,0.2-0.2,0.3-0.3,0.4c-0.1,0.1-0.3,0.2-0.4,0.3c-0.2,0.1-0.3,0.1-0.4,0.1c-0.2,0-0.3,0-0.5-0.1c-0.1-0.1-0.2-0.2-0.4-0.4
		c-0.1-0.1-0.2-0.3-0.3-0.4c-0.1-0.2-0.2-0.3-0.2-0.4c0-0.1-0.1-0.2-0.1-0.2c0-0.1-0.1-0.1-0.2-0.2c-0.1,0-0.1-0.1-0.2-0.1
		c-0.1-0.1-0.1-0.1-0.2-0.2c-0.1-0.2-0.3-0.3-0.4-0.5c-0.1-0.2-0.3-0.4-0.4-0.5c0-0.1,0-0.2-0.1-0.3c-0.1-0.1-0.2-0.2-0.3-0.4
		c-0.1-0.1-0.2-0.2-0.4-0.3c-0.1-0.1-0.2-0.2-0.3-0.2c-0.1-0.1-0.2-0.2-0.2-0.3c0-0.1,0-0.1,0-0.2c0,0,0-0.1-0.1-0.1
		c0,0-0.1-0.1-0.3-0.2c0,0-0.1-0.1-0.2-0.2c-0.1-0.1-0.2-0.2-0.2-0.4c-0.1-0.1-0.2-0.2-0.2-0.3c-0.1-0.1-0.1-0.2-0.1-0.2
		c0,0,0-0.1-0.1-0.1c0-0.1-0.1-0.1-0.1-0.1c-0.2-0.3-0.4-0.6-0.7-0.9c-0.2-0.3-0.4-0.6-0.7-0.9c0-0.1-0.1-0.2-0.2-0.3
		c-0.1-0.1-0.2-0.1-0.4-0.1c-0.2,0.2-0.3,0.4-0.4,0.5c-0.1,0.1-0.2,0.3-0.3,0.4c-0.1,0.1-0.2,0.3-0.2,0.4c-0.1,0.1-0.2,0.3-0.3,0.5
		c-0.1,0.1-0.2,0.2-0.3,0.3c-0.1,0.1-0.2,0.2-0.2,0.4c0,0,0,0,0,0c0,0,0,0,0,0.1l0,0.1c-0.1,0.1-0.2,0.1-0.3,0.1
		c-0.1,0-0.2,0.1-0.2,0.2c0,0.1,0,0.2-0.1,0.3c-0.1,0.1-0.1,0.2-0.2,0.3c-0.1,0.1-0.2,0.2-0.3,0.2c-0.1,0.1-0.2,0.1-0.2,0.2
		l-0.6,0.8c0,0,0,0.1-0.1,0.1c0,0.1-0.1,0.1-0.1,0.2c-0.1,0.1-0.1,0.1-0.2,0.2c-0.1,0.1-0.1,0.1-0.1,0.1c0,0.1-0.1,0.2-0.2,0.3
		c-0.1,0.1-0.2,0.3-0.3,0.4c-0.1,0.1-0.2,0.3-0.3,0.4c-0.1,0.1-0.1,0.3-0.1,0.4c-0.2,0.1-0.3,0.2-0.3,0.3c-0.1,0.1-0.2,0.2-0.2,0.4
		c-0.1,0.1-0.2,0.2-0.3,0.3c-0.1,0.1-0.3,0.1-0.5,0.1c-0.2,0-0.3-0.1-0.5-0.2c-0.1-0.1-0.2-0.2-0.3-0.3c0.1-0.1,0.2-0.2,0.2-0.3
		c0.1-0.1,0.1-0.3,0.2-0.4c0.1-0.1,0.1-0.3,0.2-0.4c0.1-0.1,0.1-0.3,0.2-0.4c0.1-0.1,0.1-0.2,0.2-0.2c0.1,0,0.1-0.1,0.2-0.1
		c0.1,0,0.1-0.1,0.2-0.2c0.1-0.1,0.1-0.2,0.1-0.3c0-0.1,0.1-0.2,0.2-0.3c0.1-0.1,0.3-0.2,0.4-0.3c0.1-0.1,0.3-0.2,0.4-0.3
		c0.1-0.1,0.2-0.2,0.2-0.3l0,0l0-0.1c0.1-0.2,0.3-0.3,0.4-0.4c0.1-0.1,0.2-0.2,0.2-0.2c0.1-0.1,0.1-0.1,0.1-0.1c0,0,0-0.1,0.1-0.1
		c0,0,0-0.1,0-0.1c0,0,0-0.1,0-0.1c0,0,0-0.1,0-0.2c0,0,0.1-0.1,0.2-0.2c0.1-0.1,0.1-0.1,0.2-0.2c0.1-0.1,0.2-0.1,0.2-0.2
		c0.1-0.1,0.1-0.1,0.2-0.2c0.1-0.2,0.2-0.4,0.3-0.6c0.1-0.1,0.2-0.2,0.2-0.3c0.1-0.1,0.1-0.1,0.2-0.1c0,0,0.1,0,0.1-0.1
		c0.1-0.1,0.1-0.1,0.1-0.2c0-0.1,0.1-0.1,0.1-0.2c0-0.1,0.1-0.1,0.1-0.2c0.1-0.1,0.1-0.2,0.2-0.3c0,0,0-0.1,0.1-0.1
		c0.1,0,0.1-0.1,0.2-0.1c0.1-0.1,0.1-0.1,0.2-0.1c0.1,0,0.1-0.1,0.1-0.1c0.1-0.1,0.2-0.3,0.3-0.5c0.1-0.2,0.2-0.4,0.3-0.5
		c0.1-0.2,0.2-0.3,0.4-0.4c0.1-0.1,0.3-0.2,0.5-0.2c0.2,0,0.3,0,0.5,0.1c0.1,0.1,0.3,0.2,0.4,0.4c0.1,0.1,0.2,0.3,0.3,0.5
		c0.1,0.2,0.1,0.3,0.2,0.4c0,0.1,0.1,0.1,0.1,0.2c0.1,0.1,0.2,0.2,0.3,0.2c0.1,0.1,0.2,0.1,0.3,0.2c0.1,0.1,0.1,0.1,0.1,0.1
		c0.1,0.1,0.2,0.1,0.2,0.2c0.1,0.1,0.1,0.1,0.1,0.2c0,0.1,0.1,0.1,0.1,0.2c0,0.1,0.1,0.1,0.1,0.2c0,0,0.1,0.1,0.2,0.1
		c0.1,0,0.2,0.1,0.3,0.2c0.1,0.1,0.2,0.1,0.3,0.2c0.1,0.1,0.1,0.2,0.1,0.2c0,0,0,0,0,0.1c0,0,0,0,0,0.1c0,0.1,0.1,0.3,0.1,0.4
		c0.1,0.1,0.1,0.2,0.2,0.3L319.8,442.2z"/>
	<g>
		<path class="st2" d="M296,443.5c0.1,1.2,0.1,2.1,0.2,2.7c0.1,0.6,0.2,1,0.4,1.3c0.2,0.3,0.3,0.5,0.6,0.7c0.2,0.2,0.5,0.4,0.7,0.6
			c0.3,0.2,0.6,0.6,0.9,1c0.4,0.5,0.7,1,0.8,1.6c0.1,0.6,0.3,1.2,0.4,1.9c0.1,0.6,0.3,1.2,0.6,1.8c0.3,0.6,0.7,1.1,1.4,1.5l1.8,0.9
			l3.1,3.1c1.1,0.9,2,1.4,2.9,1.7c0.9,0.3,1.9,0.4,3.1,0.4h2.4c0.1-0.1,0.2-0.2,0.4-0.3s0.4-0.1,0.6-0.1c0.2,0,0.5,0,0.8,0.1
			c0.3,0.1,0.8,0.2,1.3,0.3c0.6,0,1.4-0.2,2.3-0.6c1-0.4,1.9-0.9,2.9-1.5c1-0.6,1.9-1.2,2.8-1.8c0.9-0.6,1.5-1.2,1.8-1.7l3.3-5.3
			c1.1-1.6,1.7-3.3,1.9-5.3c0.2-2,0.3-4.1,0.3-6.4c0-1-0.2-2.1-0.7-3.3c-0.5-1.2-1.2-2.7-2.1-4.6c-1.5-1.4-2.8-2.7-3.9-3.9
			c-1.1-1.1-2.2-2.1-3.4-2.9c-1.2-0.8-2.5-1.4-3.9-1.8c-1.5-0.4-3.3-0.6-5.6-0.6h-2.4c-1,0.4-2,0.6-3,0.8c-1,0.1-2,0.5-2.9,1
			c-0.5,0.2-1,0.4-1.2,0.7c-0.3,0.3-0.6,0.7-0.9,1c-0.3,0.4-0.7,0.8-1.2,1.2c-0.5,0.4-1.1,0.8-1.8,1.1c-0.2,0.2-0.4,0.6-0.8,1.2
			c-0.3,0.6-0.7,1.2-1,1.9c-0.3,0.7-0.6,1.3-0.9,1.9c-0.3,0.6-0.5,1.1-0.6,1.5c-0.1,0-0.2,0.2-0.3,0.6c-0.2,0.4-0.3,0.9-0.5,1.5
			c-0.2,0.6-0.4,1.1-0.5,1.6c-0.2,0.5-0.2,0.9-0.2,1.2C296,441.2,296,442.3,296,443.5z M298.4,439.2c0.3-0.6,0.5-1.4,0.8-2.3
			c0.1-0.1,0.1-0.4,0.2-1.1c0.1-0.6,0.1-1.1,0.2-1.4c0.1-0.7,0.4-1.3,0.7-1.7c0.4-0.5,0.8-0.9,1.2-1.2c0.5-0.4,0.9-0.7,1.4-1.1
			c0.5-0.4,0.9-0.9,1.3-1.5c0.3-0.5,0.6-0.9,0.9-1.1c0.3-0.2,0.5-0.4,0.8-0.6c0.3-0.2,0.6-0.3,0.9-0.4c0.4-0.1,0.8-0.3,1.4-0.5
			c0.5-0.1,0.9-0.4,1.2-0.8c0.3-0.4,0.6-0.6,1.2-0.6c1,0,2.1,0.1,3.5,0.3c1.4,0.2,2.8,0.5,4.3,0.9c1.5,0.4,2.8,0.8,4.2,1.4
			c1.3,0.5,2.4,1.1,3.3,1.7c0.8,0.6,1.6,1.5,2.4,2.8c0.8,1.3,1.5,2.6,2.2,4.1c0.7,1.5,1.2,2.9,1.6,4.3c0.4,1.4,0.6,2.5,0.6,3.3
			c0,1.2-0.3,2.6-0.9,4.2c-0.6,1.5-1.4,3.1-2.3,4.5c-0.9,1.5-2,2.8-3.1,4.1c-1.2,1.2-2.3,2.1-3.4,2.7c-0.6,0.4-1.4,0.8-2.3,1.2
			c-1,0.4-1.5,0.6-1.5,0.6h-5.5c-1-0.6-1.9-1.1-2.7-1.3c-0.8-0.2-1.5-0.5-2.3-0.7c-0.7-0.2-1.5-0.6-2.2-1.2
			c-0.7-0.5-1.5-1.5-2.4-2.8c-0.9-1-1.7-1.9-2.3-2.5c-0.6-0.6-0.9-1.6-0.9-2.9c0-0.1,0-0.3,0-0.5c0-0.2-0.1-0.6-0.2-1.1
			c-1.1-0.8-1.8-1.8-2-2.8c-0.2-1-0.3-2.1-0.3-3.4C298,440.6,298.2,439.8,298.4,439.2z"/>
	</g>
</g>
</svg>
