<?xml version="1.0" encoding="utf-8"?>
<!-- Generator: Adobe Illustrator 24.1.3, SVG Export Plug-In . SVG Version: 6.00 Build 0)  -->
<svg version="1.1" id="Capa_1" xmlns="http://www.w3.org/2000/svg" xmlns:xlink="http://www.w3.org/1999/xlink" x="0px" y="0px"
	 viewBox="0 0 37.9 39.7" style="enable-background:new 0 0 37.9 39.7;" xml:space="preserve">
<style type="text/css">
	.st0{fill:#725F51;}
</style>
<g>
	<path class="st0" d="M23.8,19.2l0,0.4c0,0,0,0.1,0.1,0.2c0.1,0.1,0.2,0.2,0.3,0.3c0.1,0.1,0.2,0.2,0.3,0.4c0.1,0.1,0.1,0.2,0.2,0.3
		c0.1,0.1,0.2,0.2,0.3,0.3c0.1,0.1,0.2,0.2,0.3,0.2c0.1,0.1,0.2,0.2,0.3,0.2c0.1,0.1,0.2,0.2,0.2,0.3l0.1,0.3l0.8,0.6
		c0.1,0.1,0.1,0.2,0.1,0.4c0,0.1,0.1,0.2,0.1,0.3c0.1,0.1,0.2,0.3,0.3,0.4c0.1,0.1,0.1,0.3,0.1,0.4c0,0.2,0,0.3-0.1,0.5
		c-0.1,0.2-0.2,0.3-0.3,0.4c-0.1,0.1-0.3,0.2-0.4,0.3c-0.2,0.1-0.3,0.1-0.4,0.1c-0.2,0-0.3,0-0.5-0.1c-0.1-0.1-0.2-0.2-0.4-0.4
		c-0.1-0.1-0.2-0.3-0.3-0.4c-0.1-0.2-0.2-0.3-0.2-0.4c0-0.1-0.1-0.2-0.1-0.2c0-0.1-0.1-0.1-0.2-0.2c-0.1,0-0.1-0.1-0.2-0.1
		c-0.1-0.1-0.1-0.1-0.2-0.2c-0.1-0.2-0.3-0.3-0.4-0.5c-0.1-0.2-0.3-0.4-0.4-0.5c0-0.1,0-0.2-0.1-0.3c-0.1-0.1-0.2-0.2-0.3-0.4
		c-0.1-0.1-0.2-0.2-0.4-0.3c-0.1-0.1-0.2-0.2-0.3-0.2C22,20.9,22,20.8,22,20.7c0-0.1,0-0.1,0-0.2c0,0,0-0.1-0.1-0.1
		c0,0-0.1-0.1-0.3-0.2c0,0-0.1-0.1-0.2-0.2c-0.1-0.1-0.2-0.2-0.2-0.4c-0.1-0.1-0.2-0.2-0.2-0.3c-0.1-0.1-0.1-0.2-0.1-0.2
		c0,0,0-0.1-0.1-0.1c0-0.1-0.1-0.1-0.1-0.1c-0.2-0.3-0.4-0.6-0.7-0.9c-0.2-0.3-0.4-0.6-0.7-0.9c0-0.1-0.1-0.2-0.2-0.3
		c-0.1-0.1-0.2-0.1-0.4-0.1c-0.2,0.2-0.3,0.4-0.4,0.5c-0.1,0.1-0.2,0.3-0.3,0.4c-0.1,0.1-0.2,0.3-0.2,0.4c-0.1,0.1-0.2,0.3-0.3,0.5
		c-0.1,0.1-0.2,0.2-0.3,0.3c-0.1,0.1-0.2,0.2-0.2,0.4c0,0,0,0,0,0c0,0,0,0,0,0.1l0,0.1c-0.1,0.1-0.2,0.1-0.3,0.1
		c-0.1,0-0.2,0.1-0.2,0.2c0,0.1,0,0.2-0.1,0.3c-0.1,0.1-0.1,0.2-0.2,0.3c-0.1,0.1-0.2,0.2-0.3,0.2c-0.1,0.1-0.2,0.1-0.2,0.2
		l-0.6,0.8c0,0,0,0.1-0.1,0.1c0,0.1-0.1,0.1-0.1,0.2c-0.1,0.1-0.1,0.1-0.2,0.2c-0.1,0.1-0.1,0.1-0.1,0.1c0,0.1-0.1,0.2-0.2,0.3
		c-0.1,0.1-0.2,0.3-0.3,0.4c-0.1,0.1-0.2,0.3-0.3,0.4c-0.1,0.1-0.1,0.3-0.1,0.4c-0.2,0.1-0.3,0.2-0.3,0.3c-0.1,0.1-0.2,0.2-0.2,0.4
		c-0.1,0.1-0.2,0.2-0.3,0.3c-0.1,0.1-0.3,0.1-0.5,0.1c-0.2,0-0.3-0.1-0.5-0.2c-0.1-0.1-0.2-0.2-0.3-0.3c0.1-0.1,0.2-0.2,0.2-0.3
		c0.1-0.1,0.1-0.3,0.2-0.4c0.1-0.1,0.1-0.3,0.2-0.4c0.1-0.1,0.1-0.3,0.2-0.4c0.1-0.1,0.1-0.2,0.2-0.2c0.1,0,0.1-0.1,0.2-0.1
		c0.1,0,0.1-0.1,0.2-0.2c0.1-0.1,0.1-0.2,0.1-0.3c0-0.1,0.1-0.2,0.2-0.3c0.1-0.1,0.3-0.2,0.4-0.3c0.1-0.1,0.3-0.2,0.4-0.3
		c0.1-0.1,0.2-0.2,0.2-0.3l0,0l0-0.1c0.1-0.2,0.3-0.3,0.4-0.4c0.1-0.1,0.2-0.2,0.2-0.2c0.1-0.1,0.1-0.1,0.1-0.1c0,0,0-0.1,0.1-0.1
		c0,0,0-0.1,0-0.1c0,0,0-0.1,0-0.1c0,0,0-0.1,0-0.2c0,0,0.1-0.1,0.2-0.2c0.1-0.1,0.1-0.1,0.2-0.2c0.1-0.1,0.2-0.1,0.2-0.2
		c0.1-0.1,0.1-0.1,0.2-0.2c0.1-0.2,0.2-0.4,0.3-0.6c0.1-0.1,0.2-0.2,0.2-0.3c0.1-0.1,0.1-0.1,0.2-0.1c0,0,0.1,0,0.1-0.1
		c0.1-0.1,0.1-0.1,0.1-0.2c0-0.1,0.1-0.1,0.1-0.2c0-0.1,0.1-0.1,0.1-0.2c0.1-0.1,0.1-0.2,0.2-0.3c0,0,0-0.1,0.1-0.1
		c0.1,0,0.1-0.1,0.2-0.1c0.1-0.1,0.1-0.1,0.2-0.1c0.1,0,0.1-0.1,0.1-0.1c0.1-0.1,0.2-0.3,0.3-0.5c0.1-0.2,0.2-0.4,0.3-0.5
		c0.1-0.2,0.2-0.3,0.4-0.4c0.1-0.1,0.3-0.2,0.5-0.2c0.2,0,0.3,0,0.5,0.1c0.1,0.1,0.3,0.2,0.4,0.4c0.1,0.1,0.2,0.3,0.3,0.5
		c0.1,0.2,0.1,0.3,0.2,0.4c0,0.1,0.1,0.1,0.1,0.2c0.1,0.1,0.2,0.2,0.3,0.2c0.1,0.1,0.2,0.1,0.3,0.2c0.1,0.1,0.1,0.1,0.1,0.1
		c0.1,0.1,0.2,0.1,0.2,0.2c0.1,0.1,0.1,0.1,0.1,0.2C22,17,22,17,22,17.1c0,0.1,0.1,0.1,0.1,0.2c0,0,0.1,0.1,0.2,0.1
		c0.1,0,0.2,0.1,0.3,0.2c0.1,0.1,0.2,0.1,0.3,0.2c0.1,0.1,0.1,0.2,0.1,0.2c0,0,0,0,0,0.1c0,0,0,0,0,0.1c0,0.1,0.1,0.3,0.1,0.4
		c0.1,0.1,0.1,0.2,0.2,0.3L23.8,19.2z"/>
	<g>
		<path class="st0" d="M0.1,20.5c0.1,1.2,0.1,2.1,0.2,2.7c0.1,0.6,0.2,1,0.4,1.3C0.8,24.8,1,25,1.2,25.2c0.2,0.2,0.5,0.4,0.7,0.6
			c0.3,0.2,0.6,0.6,0.9,1c0.4,0.5,0.7,1,0.8,1.6c0.1,0.6,0.3,1.2,0.4,1.9c0.1,0.6,0.3,1.2,0.6,1.8c0.3,0.6,0.7,1.1,1.4,1.5l1.8,0.9
			l3.1,3.1c1.1,0.9,2,1.4,2.9,1.7c0.9,0.3,1.9,0.4,3.1,0.4h2.4c0.1-0.1,0.2-0.2,0.4-0.3c0.2-0.1,0.4-0.1,0.6-0.1
			c0.2,0,0.5,0,0.8,0.1c0.3,0.1,0.8,0.2,1.3,0.3c0.6,0,1.4-0.2,2.3-0.6c1-0.4,1.9-0.9,2.9-1.5c1-0.6,1.9-1.2,2.8-1.8
			c0.9-0.6,1.5-1.2,1.8-1.7l3.3-5.3c1.1-1.6,1.7-3.3,1.9-5.3c0.2-2,0.3-4.1,0.3-6.4c0-1-0.2-2.1-0.7-3.3c-0.5-1.2-1.2-2.7-2.1-4.6
			c-1.5-1.4-2.8-2.7-3.9-3.9c-1.1-1.1-2.2-2.1-3.4-2.9c-1.2-0.8-2.5-1.4-3.9-1.8C22.4,0.2,20.6,0,18.3,0h-2.4c-1,0.4-2,0.6-3,0.8
			c-1,0.1-2,0.5-2.9,1c-0.5,0.2-1,0.4-1.2,0.7c-0.3,0.3-0.6,0.7-0.9,1C7.6,3.9,7.2,4.3,6.7,4.7C6.3,5.1,5.7,5.5,4.9,5.8
			C4.7,6,4.5,6.4,4.1,7c-0.3,0.6-0.7,1.2-1,1.9c-0.3,0.7-0.6,1.3-0.9,1.9c-0.3,0.6-0.5,1.1-0.6,1.5c-0.1,0-0.2,0.2-0.3,0.6
			c-0.2,0.4-0.3,0.9-0.5,1.5C0.6,15,0.4,15.5,0.2,16C0.1,16.5,0,16.9,0,17.2C0,18.2,0,19.3,0.1,20.5z M2.5,16.2
			c0.3-0.6,0.5-1.4,0.8-2.3c0.1-0.1,0.1-0.4,0.2-1.1c0.1-0.6,0.1-1.1,0.2-1.4c0.1-0.7,0.4-1.3,0.7-1.7c0.4-0.5,0.8-0.9,1.2-1.2
			C6,8.1,6.5,7.8,6.9,7.4C7.4,7,7.8,6.5,8.2,5.9C8.5,5.4,8.8,5,9,4.8c0.3-0.2,0.5-0.4,0.8-0.6c0.3-0.2,0.6-0.3,0.9-0.4
			c0.4-0.1,0.8-0.3,1.4-0.5c0.5-0.1,0.9-0.4,1.2-0.8c0.3-0.4,0.6-0.6,1.2-0.6c1,0,2.1,0.1,3.5,0.3c1.4,0.2,2.8,0.5,4.3,0.9
			c1.5,0.4,2.8,0.8,4.2,1.4c1.3,0.5,2.4,1.1,3.3,1.7c0.8,0.6,1.6,1.5,2.4,2.8c0.8,1.3,1.5,2.6,2.2,4.1c0.7,1.5,1.2,2.9,1.6,4.3
			c0.4,1.4,0.6,2.5,0.6,3.3c0,1.2-0.3,2.6-0.9,4.2c-0.6,1.5-1.4,3.1-2.3,4.5c-0.9,1.5-2,2.8-3.1,4.1c-1.2,1.2-2.3,2.1-3.4,2.7
			c-0.6,0.4-1.4,0.8-2.3,1.2c-1,0.4-1.5,0.6-1.5,0.6h-5.5c-1-0.6-1.9-1.1-2.7-1.3c-0.8-0.2-1.5-0.5-2.3-0.7
			c-0.7-0.2-1.5-0.6-2.2-1.2c-0.7-0.5-1.5-1.5-2.4-2.8c-0.9-1-1.7-1.9-2.3-2.5c-0.6-0.6-0.9-1.6-0.9-2.9c0-0.1,0-0.3,0-0.5
			c0-0.2-0.1-0.6-0.2-1.1c-1.1-0.8-1.8-1.8-2-2.8c-0.2-1-0.3-2.1-0.3-3.4C2.1,17.6,2.2,16.8,2.5,16.2z"/>
	</g>
</g>
</svg>
