<?xml version="1.0" encoding="utf-8"?>
<!-- Generator: Adobe Illustrator 24.0.3, SVG Export Plug-In . SVG Version: 6.00 Build 0)  -->
<svg version="1.1" id="Capa_1" xmlns="http://www.w3.org/2000/svg" xmlns:xlink="http://www.w3.org/1999/xlink" x="0px" y="0px"
	 viewBox="0 0 38.3 38.4" style="enable-background:new 0 0 38.3 38.4;" xml:space="preserve">
<style type="text/css">
	.st0{fill:#FBFAF9;}
</style>
<g>
	<path class="st0" d="M8.3,28.1C8.3,28.1,8.3,28.1,8.3,28.1C8.3,28.1,8.3,28.1,8.3,28.1C8.3,28.1,8.3,28.1,8.3,28.1z"/>
	<path class="st0" d="M37.2,20.1c0-0.5,0-0.9,0-1.4c0-0.5,0-1-0.1-1.4c0-0.5-0.1-0.9-0.1-1.3c-0.1-0.5-0.2-0.9-0.3-1.2
		c-0.1-0.3-0.3-0.5-0.5-0.7c-0.2-0.2-0.4-0.4-0.7-0.6c-0.3-0.2-0.6-0.5-0.9-0.9c-0.4-0.4-0.7-0.9-0.8-1.5c-0.1-0.6-0.3-1.2-0.4-1.8
		c-0.1-0.6-0.3-1.2-0.5-1.7c-0.2-0.5-0.6-1-1.2-1.4l-1.8-0.8l-2.9-2.8c-0.5-0.4-1-0.7-1.4-1c-0.4-0.2-0.9-0.4-1.4-0.5
		C23.6,1.1,23.1,1,22.6,1C22.2,1,21.6,1,21,1h-2.1c-0.3,0.1-0.6,0.2-0.8,0.2c-0.2,0-0.4,0.1-0.7,0.1L15.7,1c-0.7,0-1.5,0.1-2.4,0.4
		c-0.9,0.3-1.7,0.6-2.5,1.1c-0.8,0.5-1.7,1-2.4,1.6C7.6,4.7,6.9,5.3,6.3,6L3,11c-0.5,0.7-0.9,1.5-1.2,2.3c-0.3,0.8-0.5,1.6-0.6,2.4
		C1.1,16.5,1,17.3,1,18.1c0,0.8,0,1.7,0,2.5v1c0,0.7,0.1,1.3,0.2,2c0.2,0.6,0.4,1.3,0.6,1.9c0.3,0.6,0.6,1.2,0.9,1.8
		c0.3,0.6,0.7,1.2,1,1.7c1,0.9,1.8,1.7,2.6,2.4s1.5,1.5,2.2,2.1c0.7,0.6,1.4,1.2,2.1,1.7c0.7,0.5,1.5,0.9,2.3,1.3
		c0.9,0.3,1.8,0.6,2.9,0.8c1.1,0.2,2.3,0.3,3.7,0.3h2.6c0.4-0.3,0.9-0.4,1.4-0.6c0.5-0.1,1-0.3,1.5-0.4c0.5-0.1,1-0.2,1.5-0.3
		c0.5-0.1,0.9-0.3,1.3-0.5c0.4-0.2,0.8-0.5,1.2-0.8c0.4-0.3,0.7-0.6,1.1-0.9c0.4-0.3,0.8-0.6,1.2-0.9c0.4-0.3,0.9-0.6,1.5-0.8
		c0,0,0.1,0,0.1,0c0.1,0,0.1,0,0.2-0.1l0.3-0.1c0.2-0.2,0.4-0.5,0.6-1s0.4-1,0.6-1.6c0.2-0.6,0.4-1.2,0.6-1.8c0.2-0.6,0.3-1,0.4-1.4
		c0-0.1,0.1-0.2,0.1-0.2c0-0.1,0.1-0.1,0.1-0.1c0.2-0.3,0.3-0.6,0.5-0.9c0.2-0.4,0.3-0.7,0.4-1.1c0.1-0.4,0.2-0.7,0.3-1.1
		c0.1-0.3,0.1-0.7,0.2-0.9v-0.7C37.2,21,37.2,20.6,37.2,20.1z M12.4,28.6c0,0.1,0,0.1-0.1,0.2c0,0.1,0,0.1-0.1,0.2
		c0,0.1,0,0.1,0,0.1c0,0,0,0.1-0.1,0.2c0,0.1-0.1,0.2-0.1,0.2c0,0.1-0.1,0.2-0.1,0.2c0,0.1-0.1,0.1-0.1,0.1c-0.1,0-0.2,0.1-0.2,0.1
		c-0.1,0-0.1,0.1-0.1,0.1c0,0-0.1,0.1-0.1,0.1c0,0-0.1,0.1-0.2,0.1c-0.1,0.1-0.2,0.1-0.3,0.1c-0.1,0-0.3,0-0.4,0.1h-0.3
		c-0.3,0-0.5,0-0.7-0.1c-0.2,0-0.3-0.1-0.5-0.2c-0.1-0.1-0.3-0.2-0.4-0.3c-0.1-0.1-0.3-0.3-0.5-0.5c-0.1-0.2-0.2-0.4-0.3-0.6
		c-0.1-0.1-0.1-0.3-0.1-0.4c0-0.3,0-0.5,0-0.8c0-0.2,0.1-0.5,0.2-0.6l0.4-0.7c0-0.1,0.1-0.1,0.2-0.2C8.8,26.2,8.9,26.1,9,26
		c0.1-0.1,0.2-0.1,0.4-0.2c0.1-0.1,0.2-0.1,0.3-0.1c0.1,0,0.1,0,0.2,0c0,0,0.1,0,0.1,0c0,0,0.1,0,0.1,0c0,0,0,0,0,0h0.3
		c0.2,0,0.3,0,0.4,0c0.1,0,0.2,0.1,0.4,0.2l0.4,0.4l0.2,0.1c0.1,0.1,0.1,0.1,0.2,0.2c0,0.1,0.1,0.1,0.1,0.2c0,0.1,0,0.2,0,0.2
		c0,0.1,0.1,0.1,0.1,0.2c0,0.1,0.1,0.1,0.1,0.1c0,0,0.1,0.1,0.1,0.1c0,0,0,0.1,0.1,0.1c0,0,0,0.1,0,0.2c0,0.1,0,0.2,0,0.3
		c0,0.2,0,0.3,0,0.4C12.4,28.5,12.4,28.6,12.4,28.6z M30.8,12c-0.1,0.4-0.2,0.7-0.4,1.1c-0.2,0.3-0.4,0.7-0.6,1
		c-0.2,0.3-0.5,0.6-0.7,0.8c-0.2,0.1-0.3,0.3-0.4,0.6c-0.1,0.3-0.2,0.5-0.3,0.8c-0.1,0.3-0.2,0.5-0.3,0.8c-0.1,0.2-0.2,0.4-0.3,0.4
		c0,0.1-0.1,0.3-0.2,0.6c-0.1,0.3-0.3,0.6-0.5,1c-0.2,0.3-0.3,0.7-0.5,0.9c-0.2,0.3-0.3,0.4-0.3,0.4c0,0-0.1,0-0.3,0.1
		c-0.1,0-0.3,0.1-0.5,0.1c-0.2,0-0.3,0.1-0.5,0.1c-0.2,0-0.3,0-0.3-0.1c0-0.1-0.1-0.3-0.1-0.6c0-0.3-0.1-0.5-0.1-0.7
		c0-0.4,0-0.8,0.1-1.1c0.1-0.3,0.2-0.6,0.3-0.9c0.1-0.3,0.2-0.6,0.4-1c0.1-0.3,0.2-0.8,0.2-1.2c-0.3,0-0.9-0.1-0.9-0.1
		c-0.1,0-0.1,0-0.2,0l-0.1,0c-0.5,0.1-0.9,0.2-1.2,0.4c-0.4,0.2-0.8,0.4-1.2,0.6c-0.3,0.2-0.6,0.4-1,0.5c-0.3,0.1-0.6,0.3-0.9,0.6
		c0,0,0,0-0.1,0.1c0,0-0.1,0.1-0.1,0.1c0,0-0.1,0.1-0.1,0.1c0,0-0.1,0-0.1,0.1c0,0-0.1,0-0.1,0c-0.1,0-0.1,0-0.2,0.1
		c-0.1,0-0.1,0-0.2,0.1c-0.1,0-0.1,0-0.1,0c0,0,0,0-0.1,0.1c0,0-0.1,0.1-0.1,0.1c0,0-0.1,0.1-0.1,0.1c0,0-0.1,0-0.1,0
		c-0.1,0-0.2,0.1-0.3,0.1c-0.1,0-0.2,0.1-0.3,0.1c-0.1,0-0.2,0.1-0.3,0.1c-0.1,0-0.2,0.1-0.3,0.2c0,0-0.1,0.1-0.2,0.1
		c-0.1,0.1-0.2,0.2-0.4,0.3c-0.1,0.1-0.3,0.2-0.4,0.3c-0.1,0.1-0.2,0.2-0.3,0.2c-0.1,0.1-0.2,0.2-0.4,0.3c-0.1,0.1-0.3,0.2-0.4,0.4
		c-0.1,0.1-0.2,0.3-0.3,0.4c-0.1,0.1-0.2,0.3-0.2,0.4c0,0,0,0,0,0.1c0,0,0,0.1-0.1,0.1c0,0,0,0.1-0.1,0.1c0,0,0,0.1,0,0.1
		c0,0,0,0.1,0,0.2c0,0.1,0,0.2,0,0.2c0,0,0,0.1,0,0.1c0,0,0,0.1,0,0.2c0,0.1,0,0.1,0,0.2c0,0.1,0.1,0.3,0.2,0.4
		c0.1,0.1,0.2,0.2,0.4,0.3c0.1,0.1,0.2,0.2,0.3,0.4c0.1,0.1,0.2,0.3,0.2,0.4c0,0.1,0,0.2,0,0.4c0,0.2,0,0.4-0.1,0.5
		c0,0.2-0.1,0.4-0.1,0.5c0,0.2-0.1,0.3-0.2,0.3c-0.2,0.1-0.3,0.1-0.4,0.2c-0.1,0-0.3,0.1-0.4,0.1l-0.3,0c-0.1-0.1-0.2-0.1-0.3-0.2
		c-0.1-0.1-0.2-0.1-0.3-0.2s-0.2-0.1-0.2-0.2c0,0,0,0-0.1,0c0,0-0.1,0-0.1-0.1c0,0-0.1-0.1-0.2-0.2c-0.1-0.1-0.1-0.1-0.2-0.2
		c-0.1-0.1-0.2-0.2-0.2-0.3c-0.1-0.2-0.1-0.4-0.2-0.6c-0.1-0.2-0.1-0.4-0.1-0.6c0-0.2,0-0.4,0-0.6c0-0.2,0-0.4,0.1-0.7
		c0.1-0.2,0.2-0.3,0.2-0.4c0.1-0.1,0.1-0.3,0.2-0.4c0.1-0.1,0.1-0.2,0.2-0.4c0.1-0.1,0.1-0.2,0.2-0.4c0,0,0,0,0-0.1c0,0,0-0.1,0-0.1
		c0,0,0-0.1,0-0.1c0-0.1,0-0.1,0-0.1c0-0.1,0.1-0.1,0.2-0.3c0.1-0.1,0.2-0.2,0.3-0.4c0.1-0.1,0.2-0.2,0.2-0.3
		c0.1-0.1,0.1-0.2,0.2-0.2c0,0,0,0,0.1,0c0,0,0.1-0.1,0.1-0.1s0.1-0.1,0.1-0.1c0,0,0.1,0,0.1-0.1c0,0,0,0,0.1-0.1
		c0,0,0.1-0.1,0.1-0.1c0,0,0.1-0.1,0.1-0.1c0,0,0.1-0.1,0.1-0.1c0,0,0,0,0.1-0.1c0,0,0.1-0.1,0.1-0.1c0.1,0,0.1-0.1,0.1-0.1
		c0,0,0.1,0,0.1-0.1c0,0,0.1-0.1,0.1-0.2c0.1-0.1,0.1-0.2,0.2-0.3c0.1-0.1,0.1-0.2,0.2-0.3c0.1-0.1,0.1-0.1,0.1-0.2c0,0,0,0,0.1,0
		c0.1,0,0.1,0,0.2-0.1c0.1,0,0.1,0,0.2-0.1c0.1,0,0.1,0,0.1,0c0,0,0,0,0.1-0.1c0.1,0,0.1-0.1,0.1-0.1c0,0,0,0,0.1,0
		c0,0,0.1-0.1,0.1-0.1c0,0,0.1-0.1,0.1-0.1c0,0,0.1,0,0.1-0.1c0.3-0.2,0.6-0.4,0.9-0.5c0.3-0.2,0.6-0.3,0.9-0.5c0,0,0,0,0.1-0.1
		c0,0,0.1-0.1,0.1-0.1s0.1-0.1,0.1-0.1c0,0,0.1,0,0.1,0c0,0,0.1-0.1,0.3-0.2c0.2-0.1,0.4-0.2,0.6-0.3c0.2-0.1,0.4-0.2,0.6-0.3
		c0.2-0.1,0.3-0.1,0.3-0.2c0,0,0.1,0,0.1-0.1c0.1,0,0.1-0.1,0.2-0.2c0.1-0.1,0.2-0.1,0.2-0.2c0.1,0,0.1-0.1,0.1-0.1
		c0,0,0.1,0,0.2-0.1c0.1,0,0.2-0.1,0.3-0.1c0.1,0,0.2-0.1,0.3-0.1c0.1,0,0.2-0.1,0.2-0.1c0,0,0.1-0.1,0.2-0.2
		c0.1-0.1,0.2-0.2,0.3-0.2c0.1-0.1,0.2-0.2,0.4-0.3c0,0,0.1,0,0.1-0.1c-0.1,0-0.1-0.1-0.2-0.1c-0.2-0.1-0.3-0.2-0.4-0.3
		c-0.1-0.1-0.2-0.1-0.3-0.1c-0.2-0.1-0.4-0.2-0.6-0.2c-0.1-0.1-0.2-0.1-0.3-0.2c-0.1,0-0.2-0.1-0.2-0.1c0,0-0.1-0.1-0.2-0.2L21,10.3
		c-0.2-0.2-0.4-0.3-0.5-0.3c-0.1-0.1-0.2-0.1-0.3-0.2S20.1,9.7,20,9.6c-0.1,0-0.1-0.1-0.2-0.2l-0.3-0.7c0.1-0.3,0.3-0.5,0.3-0.6
		C19.9,8.1,20,8.1,20.2,8l1.1-0.5C21.5,7.8,21.8,7.9,22,8c0.2,0.1,0.5,0.2,0.7,0.2c0.2,0,0.5,0.1,0.7,0.1c0.2,0,0.5,0.1,0.7,0.3l0,0
		c0.1,0,0.2,0,0.4,0.1C24.8,8.8,25,8.8,25.2,9c0.2,0.1,0.4,0.2,0.5,0.3c0.2,0.1,0.3,0.2,0.4,0.2l0.7,0c0.3,0,0.6,0.1,1,0.1
		c0.4,0.1,0.8,0.2,1.2,0.3c0,0,0.1,0,0.1,0c0.4,0.1,0.7,0.3,1,0.5c0.2,0.1,0.4,0.3,0.5,0.4c0.1,0.1,0.1,0.1,0.2,0.2
		C30.8,11.3,30.9,11.6,30.8,12z"/>
</g>
</svg>
