<?xml version="1.0" encoding="utf-8"?>
<!-- Generator: Adobe Illustrator 24.1.3, SVG Export Plug-In . SVG Version: 6.00 Build 0)  -->
<svg version="1.1" id="Capa_1" xmlns="http://www.w3.org/2000/svg" xmlns:xlink="http://www.w3.org/1999/xlink" x="0px" y="0px"
	 viewBox="0 0 36.3 36.6" style="enable-background:new 0 0 36.3 36.6;" xml:space="preserve">
<style type="text/css">
	.st0{fill:#0F1322;}
</style>
<g>
	<path class="st0" d="M7.4,27.1C7.4,27.2,7.4,27.2,7.4,27.1C7.4,27.1,7.4,27.1,7.4,27.1C7.4,27.1,7.4,27.1,7.4,27.1z"/>
	<path class="st0" d="M36.3,19.2c0-0.5,0-0.9,0-1.4c0-0.5,0-1-0.1-1.4c0-0.5-0.1-0.9-0.1-1.3c-0.1-0.5-0.2-0.9-0.3-1.2
		c-0.1-0.3-0.3-0.5-0.5-0.7c-0.2-0.2-0.4-0.4-0.7-0.6c-0.3-0.2-0.6-0.5-0.9-0.9c-0.4-0.4-0.7-0.9-0.8-1.5c-0.1-0.6-0.3-1.2-0.4-1.8
		c-0.1-0.6-0.3-1.2-0.5-1.7c-0.2-0.5-0.6-1-1.2-1.4l-1.8-0.8L26,1.7c-0.5-0.4-1-0.7-1.4-1c-0.4-0.2-0.9-0.4-1.4-0.5
		c-0.5-0.1-0.9-0.2-1.4-0.2c-0.5,0-1-0.1-1.6-0.1H18c-0.3,0.1-0.6,0.2-0.8,0.2c-0.2,0-0.4,0.1-0.7,0.1L14.7,0
		c-0.7,0-1.5,0.1-2.4,0.4C11.5,0.7,10.7,1,9.9,1.5C9,2,8.2,2.5,7.4,3.1C6.6,3.7,6,4.4,5.4,5.1l-3.3,5c-0.5,0.7-0.9,1.5-1.2,2.3
		c-0.3,0.8-0.5,1.6-0.6,2.4c-0.1,0.8-0.2,1.6-0.2,2.5c0,0.8,0,1.7,0,2.5v1c0,0.7,0.1,1.3,0.2,2c0.2,0.6,0.4,1.3,0.6,1.9
		c0.3,0.6,0.6,1.2,0.9,1.8c0.3,0.6,0.7,1.2,1,1.7c1,0.9,1.8,1.7,2.6,2.4s1.5,1.5,2.2,2.1c0.7,0.6,1.4,1.2,2.1,1.7
		c0.7,0.5,1.5,0.9,2.3,1.3c0.9,0.3,1.8,0.6,2.9,0.8c1.1,0.2,2.3,0.3,3.7,0.3h2.6c0.4-0.3,0.9-0.4,1.4-0.6c0.5-0.1,1-0.3,1.5-0.4
		c0.5-0.1,1-0.2,1.5-0.3c0.5-0.1,0.9-0.3,1.3-0.5c0.4-0.2,0.8-0.5,1.2-0.8c0.4-0.3,0.7-0.6,1.1-0.9c0.4-0.3,0.8-0.6,1.2-0.9
		c0.4-0.3,0.9-0.6,1.5-0.8c0,0,0.1,0,0.1,0c0.1,0,0.1,0,0.2-0.1l0.3-0.1c0.2-0.2,0.4-0.5,0.6-1s0.4-1,0.6-1.6
		c0.2-0.6,0.4-1.2,0.6-1.8c0.2-0.6,0.3-1,0.4-1.4c0-0.1,0.1-0.2,0.1-0.2c0-0.1,0.1-0.1,0.1-0.1c0.2-0.3,0.3-0.6,0.5-0.9
		c0.2-0.4,0.3-0.7,0.4-1.1c0.1-0.4,0.2-0.7,0.3-1.1c0.1-0.3,0.1-0.7,0.2-0.9v-0.7C36.3,20.1,36.3,19.6,36.3,19.2z M11.5,27.7
		c0,0.1,0,0.1-0.1,0.2c0,0.1,0,0.1-0.1,0.2c0,0.1,0,0.1,0,0.1c0,0,0,0.1-0.1,0.2c0,0.1-0.1,0.2-0.1,0.2c0,0.1-0.1,0.2-0.1,0.2
		c0,0.1-0.1,0.1-0.1,0.1c-0.1,0-0.2,0.1-0.2,0.1c-0.1,0-0.1,0.1-0.1,0.1c0,0-0.1,0.1-0.1,0.1c0,0-0.1,0.1-0.2,0.1
		c-0.1,0.1-0.2,0.1-0.3,0.1c-0.1,0-0.3,0-0.4,0.1H9.3c-0.3,0-0.5,0-0.7-0.1c-0.2,0-0.3-0.1-0.5-0.2C8,29.3,7.8,29.1,7.7,29
		c-0.1-0.1-0.3-0.3-0.5-0.5C7.1,28.3,7,28.1,7,28c-0.1-0.1-0.1-0.3-0.1-0.4c0-0.3,0-0.5,0-0.8c0-0.2,0.1-0.5,0.2-0.6l0.4-0.7
		c0-0.1,0.1-0.1,0.2-0.2c0.1-0.1,0.2-0.2,0.3-0.2c0.1-0.1,0.2-0.1,0.4-0.2c0.1-0.1,0.2-0.1,0.3-0.1c0.1,0,0.1,0,0.2,0
		c0,0,0.1,0,0.1,0c0,0,0.1,0,0.1,0c0,0,0,0,0,0h0.3c0.2,0,0.3,0,0.4,0c0.1,0,0.2,0.1,0.4,0.2l0.4,0.4l0.2,0.1
		c0.1,0.1,0.1,0.1,0.2,0.2c0,0.1,0.1,0.1,0.1,0.2c0,0.1,0,0.2,0,0.2c0,0.1,0.1,0.1,0.1,0.2c0,0.1,0.1,0.1,0.1,0.1
		c0,0,0.1,0.1,0.1,0.1c0,0,0,0.1,0.1,0.1c0,0,0,0.1,0,0.2c0,0.1,0,0.2,0,0.3c0,0.2,0,0.3,0,0.4C11.5,27.6,11.5,27.6,11.5,27.7z
		 M29.9,11c-0.1,0.4-0.2,0.7-0.4,1.1c-0.2,0.3-0.4,0.7-0.6,1c-0.2,0.3-0.5,0.6-0.7,0.8c-0.2,0.1-0.3,0.3-0.4,0.6
		c-0.1,0.3-0.2,0.5-0.3,0.8c-0.1,0.3-0.2,0.5-0.3,0.8c-0.1,0.2-0.2,0.4-0.3,0.4c0,0.1-0.1,0.3-0.2,0.6c-0.1,0.3-0.3,0.6-0.5,1
		c-0.2,0.3-0.3,0.7-0.5,0.9c-0.2,0.3-0.3,0.4-0.3,0.4c0,0-0.1,0-0.3,0.1c-0.1,0-0.3,0.1-0.5,0.1c-0.2,0-0.3,0.1-0.5,0.1
		c-0.2,0-0.3,0-0.3-0.1c0-0.1-0.1-0.3-0.1-0.6c0-0.3-0.1-0.5-0.1-0.7c0-0.4,0-0.8,0.1-1.1c0.1-0.3,0.2-0.6,0.3-0.9
		c0.1-0.3,0.2-0.6,0.4-1c0.1-0.3,0.2-0.8,0.2-1.2c-0.3,0-0.9-0.1-0.9-0.1c-0.1,0-0.1,0-0.2,0l-0.1,0c-0.5,0.1-0.9,0.2-1.2,0.4
		c-0.4,0.2-0.8,0.4-1.2,0.6c-0.3,0.2-0.6,0.4-1,0.5c-0.3,0.1-0.6,0.3-0.9,0.6c0,0,0,0-0.1,0.1c0,0-0.1,0.1-0.1,0.1
		c0,0-0.1,0.1-0.1,0.1c0,0-0.1,0-0.1,0.1c0,0-0.1,0-0.1,0c-0.1,0-0.1,0-0.2,0.1c-0.1,0-0.1,0-0.2,0.1c-0.1,0-0.1,0-0.1,0
		c0,0,0,0-0.1,0.1c0,0-0.1,0.1-0.1,0.1c0,0-0.1,0.1-0.1,0.1c0,0-0.1,0-0.1,0c-0.1,0-0.2,0.1-0.3,0.1C17.2,17,17.1,17,17,17
		c-0.1,0-0.2,0.1-0.3,0.1c-0.1,0-0.2,0.1-0.3,0.2c0,0-0.1,0.1-0.2,0.1c-0.1,0.1-0.2,0.2-0.4,0.3c-0.1,0.1-0.3,0.2-0.4,0.3
		c-0.1,0.1-0.2,0.2-0.3,0.2c-0.1,0.1-0.2,0.2-0.4,0.3c-0.1,0.1-0.3,0.2-0.4,0.4c-0.1,0.1-0.2,0.3-0.3,0.4c-0.1,0.1-0.2,0.3-0.2,0.4
		c0,0,0,0,0,0.1c0,0,0,0.1-0.1,0.1c0,0,0,0.1-0.1,0.1c0,0,0,0.1,0,0.1c0,0,0,0.1,0,0.2c0,0.1,0,0.2,0,0.2c0,0,0,0.1,0,0.1
		c0,0,0,0.1,0,0.2c0,0.1,0,0.1,0,0.2c0,0.1,0.1,0.3,0.2,0.4c0.1,0.1,0.2,0.2,0.4,0.3c0.1,0.1,0.2,0.2,0.3,0.4
		c0.1,0.1,0.2,0.3,0.2,0.4c0,0.1,0,0.2,0,0.4c0,0.2,0,0.4-0.1,0.5c0,0.2-0.1,0.4-0.1,0.5c0,0.2-0.1,0.3-0.2,0.3
		c-0.2,0.1-0.3,0.1-0.4,0.2c-0.1,0-0.3,0.1-0.4,0.1l-0.3,0c-0.1-0.1-0.2-0.1-0.3-0.2c-0.1-0.1-0.2-0.1-0.3-0.2S12.6,24,12.5,24
		c0,0,0,0-0.1,0c0,0-0.1,0-0.1-0.1c0,0-0.1-0.1-0.2-0.2c-0.1-0.1-0.1-0.1-0.2-0.2c-0.1-0.1-0.2-0.2-0.2-0.3
		c-0.1-0.2-0.1-0.4-0.2-0.6c-0.1-0.2-0.1-0.4-0.1-0.6c0-0.2,0-0.4,0-0.6c0-0.2,0-0.4,0.1-0.7c0.1-0.2,0.2-0.3,0.2-0.4
		c0.1-0.1,0.1-0.3,0.2-0.4c0.1-0.1,0.1-0.2,0.2-0.4c0.1-0.1,0.1-0.2,0.2-0.4c0,0,0,0,0-0.1c0,0,0-0.1,0-0.1c0,0,0-0.1,0-0.1
		c0-0.1,0-0.1,0-0.1c0-0.1,0.1-0.1,0.2-0.3c0.1-0.1,0.2-0.2,0.3-0.4c0.1-0.1,0.2-0.2,0.2-0.3c0.1-0.1,0.1-0.2,0.2-0.2c0,0,0,0,0.1,0
		c0,0,0.1-0.1,0.1-0.1s0.1-0.1,0.1-0.1c0,0,0.1,0,0.1-0.1c0,0,0,0,0.1-0.1c0,0,0.1-0.1,0.1-0.1c0,0,0.1-0.1,0.1-0.1
		c0,0,0.1-0.1,0.1-0.1c0,0,0,0,0.1-0.1c0,0,0.1-0.1,0.1-0.1c0.1,0,0.1-0.1,0.1-0.1c0,0,0.1,0,0.1-0.1c0,0,0.1-0.1,0.1-0.2
		c0.1-0.1,0.1-0.2,0.2-0.3c0.1-0.1,0.1-0.2,0.2-0.3c0.1-0.1,0.1-0.1,0.1-0.2c0,0,0,0,0.1,0c0.1,0,0.1,0,0.2-0.1c0.1,0,0.1,0,0.2-0.1
		c0.1,0,0.1,0,0.1,0c0,0,0,0,0.1-0.1c0.1,0,0.1-0.1,0.1-0.1c0,0,0,0,0.1,0c0,0,0.1-0.1,0.1-0.1c0,0,0.1-0.1,0.1-0.1
		c0,0,0.1,0,0.1-0.1c0.3-0.2,0.6-0.4,0.9-0.5c0.3-0.2,0.6-0.3,0.9-0.5c0,0,0,0,0.1-0.1c0,0,0.1-0.1,0.1-0.1s0.1-0.1,0.1-0.1
		c0,0,0.1,0,0.1,0c0,0,0.1-0.1,0.3-0.2c0.2-0.1,0.4-0.2,0.6-0.3c0.2-0.1,0.4-0.2,0.6-0.3c0.2-0.1,0.3-0.1,0.3-0.2c0,0,0.1,0,0.1-0.1
		c0.1,0,0.1-0.1,0.2-0.2c0.1-0.1,0.2-0.1,0.2-0.2c0.1,0,0.1-0.1,0.1-0.1c0,0,0.1,0,0.2-0.1c0.1,0,0.2-0.1,0.3-0.1
		c0.1,0,0.2-0.1,0.3-0.1c0.1,0,0.2-0.1,0.2-0.1c0,0,0.1-0.1,0.2-0.2c0.1-0.1,0.2-0.2,0.3-0.2c0.1-0.1,0.2-0.2,0.4-0.3
		c0,0,0.1,0,0.1-0.1c-0.1,0-0.1-0.1-0.2-0.1c-0.2-0.1-0.3-0.2-0.4-0.3c-0.1-0.1-0.2-0.1-0.3-0.1c-0.2-0.1-0.4-0.2-0.6-0.2
		c-0.1-0.1-0.2-0.1-0.3-0.2c-0.1,0-0.2-0.1-0.2-0.1c0,0-0.1-0.1-0.2-0.2l-0.5-0.5c-0.2-0.2-0.4-0.3-0.5-0.3
		c-0.1-0.1-0.2-0.1-0.3-0.2s-0.2-0.1-0.2-0.1c-0.1,0-0.1-0.1-0.2-0.2l-0.3-0.7c0.1-0.3,0.3-0.5,0.3-0.6C19,7.2,19.1,7.1,19.3,7
		l1.1-0.5c0.2,0.2,0.4,0.4,0.6,0.5c0.2,0.1,0.5,0.2,0.7,0.2c0.2,0,0.5,0.1,0.7,0.1c0.2,0,0.5,0.1,0.7,0.3l0,0c0.1,0,0.2,0,0.4,0.1
		c0.2,0.1,0.4,0.2,0.6,0.3c0.2,0.1,0.4,0.2,0.5,0.3c0.2,0.1,0.3,0.2,0.4,0.2l0.7,0c0.3,0,0.6,0.1,1,0.1c0.4,0.1,0.8,0.2,1.2,0.3
		c0,0,0.1,0,0.1,0c0.4,0.1,0.7,0.3,1,0.5c0.2,0.1,0.4,0.3,0.5,0.4c0.1,0.1,0.1,0.1,0.2,0.2C29.9,10.4,30,10.7,29.9,11z"/>
</g>
</svg>
