<?xml version="1.0" encoding="utf-8"?>
<!-- Generator: Adobe Illustrator 24.2.3, SVG Export Plug-In . SVG Version: 6.00 Build 0)  -->
<svg version="1.1" id="Capa_1" xmlns="http://www.w3.org/2000/svg" xmlns:xlink="http://www.w3.org/1999/xlink" x="0px" y="0px"
	 viewBox="0 0 32.1 24.8" style="enable-background:new 0 0 32.1 24.8;" xml:space="preserve">
<style type="text/css">
	.st0{fill:#715E50;}
</style>
<g>
	<g>
		<g>
			<rect x="0.6" y="5.6" class="st0" width="6" height="12.5"/>
		</g>
		<g>
			<polyline class="st0" points="6.6,5.6 18.2,0.9 18.2,23.6 6.6,18.1 			"/>
		</g>
	</g>
	<g>
		<path class="st0" d="M25.7,23c-0.2,0-0.3-0.1-0.4-0.2c-0.2-0.2-0.2-0.6,0-0.9c3.6-3.6,5.4-7.4,5.1-11c-0.4-5.4-5-8.9-5-9
			c-0.3-0.2-0.3-0.6-0.1-0.9c0.2-0.3,0.6-0.3,0.9-0.1c0.2,0.2,5.1,3.9,5.5,9.8c0.3,4-1.5,8.1-5.5,12C26,23,25.8,23,25.7,23z"/>
	</g>
	<g>
		<path class="st0" d="M23.3,20.8c-0.2,0-0.3-0.1-0.4-0.2c-0.2-0.2-0.2-0.6,0-0.9c2.7-2.7,4-5.5,3.8-8.2c-0.3-4-3.7-6.6-3.8-6.7
			c-0.3-0.2-0.3-0.6-0.1-0.9c0.2-0.3,0.6-0.3,0.9-0.1c0.2,0.1,3.9,3,4.2,7.6c0.2,3.1-1.2,6.2-4.2,9.2C23.6,20.8,23.4,20.8,23.3,20.8
			z"/>
	</g>
	<g>
		<path class="st0" d="M21.4,17c-0.2,0-0.3-0.1-0.4-0.2c-0.2-0.2-0.2-0.6,0-0.9c1.4-1.4,2.1-2.8,2-4.2c-0.1-2-1.9-3.4-1.9-3.4
			c-0.3-0.2-0.3-0.6-0.1-0.9c0.2-0.3,0.6-0.3,0.9-0.1c0.1,0.1,2.2,1.7,2.4,4.3c0.1,1.8-0.7,3.5-2.3,5.2C21.7,17,21.6,17,21.4,17z"/>
	</g>
</g>
</svg>
