<?xml version="1.0" encoding="utf-8"?>
<!-- Generator: Adobe Illustrator 24.2.3, SVG Export Plug-In . SVG Version: 6.00 Build 0)  -->
<svg version="1.1" id="Capa_1" xmlns="http://www.w3.org/2000/svg" xmlns:xlink="http://www.w3.org/1999/xlink" x="0px" y="0px"
	 viewBox="0 0 9.6 28.8" style="enable-background:new 0 0 9.6 28.8;" xml:space="preserve">
<style type="text/css">
	.st0{fill:none;}
	.st1{fill:#13182C;}
</style>
<g>
	<path class="st0" d="M6.1,9.1C6,9.2,5.9,9.3,5.8,9.3C5.6,9.4,5.5,9.4,5.4,9.4c-0.1,0-0.2,0.1-0.3,0.1C5,9.6,4.9,9.6,4.9,9.7
		C4.8,9.8,4.7,9.9,4.6,10c-0.1,0.2-0.2,0.3-0.4,0.4c-0.1,0.1-0.3,0.2-0.4,0.3c-0.1,0.1-0.3,0.2-0.4,0.3c-0.1,0.1-0.2,0.3-0.2,0.5
		c0,0.1,0,0.2-0.1,0.4c0,0.2,0,0.3-0.1,0.3C3,12.6,2.9,12.8,2.8,13c-0.1,0.2-0.1,0.4-0.1,0.8c0,0.4,0,0.7,0.1,1
		C2.8,15,3,15.3,3.3,15.6c0,0.2,0.1,0.3,0.1,0.3c0,0.1,0,0.1,0,0.2c0,0.4,0.1,0.7,0.2,0.9c0.2,0.2,0.4,0.4,0.6,0.8
		c0.3,0.4,0.5,0.7,0.7,0.8c0.2,0.2,0.4,0.3,0.6,0.4C5.8,18.9,6,19,6.3,19.1c0.2,0.1,0.5,0.2,0.8,0.4l0.2,0c0-0.2-0.1-0.3-0.1-0.5
		c0-0.3-0.1-0.5-0.1-0.8c0-0.2,0-0.4,0-0.5l0.3-2c0-0.1,0-0.2,0-0.4c0-0.1-0.1-0.3-0.1-0.4c0-0.1-0.1-0.3-0.1-0.4s0-0.2,0-0.4
		c0-0.1,0-0.3,0-0.5c0-0.2,0.1-0.3,0.1-0.5c0-0.2,0.1-0.3,0.1-0.5c0-0.2,0-0.3,0-0.4c0-0.3,0-0.5-0.1-0.8c-0.1-0.3-0.1-0.6-0.1-0.9
		l0.1-0.5c0-0.3,0-0.5,0-0.6c0-0.2,0-0.3,0-0.3c0-0.1,0-0.1,0-0.2c0,0,0,0,0,0c-0.3,0-0.5-0.1-0.8-0.1C6.3,8.9,6.2,8.9,6.1,9.1z"/>
	<path class="st0" d="M9.8,19c0.3-0.2,0.7-0.4,1-0.8c0.3-0.4,0.7-0.7,1-1.2c0.3-0.4,0.5-0.9,0.7-1.3c0.2-0.4,0.3-0.9,0.3-1.2
		c0-0.2,0-0.6-0.2-1c-0.1-0.4-0.3-0.8-0.4-1.3c-0.2-0.4-0.4-0.8-0.6-1.2c-0.2-0.4-0.5-0.7-0.7-0.8c-0.3-0.2-0.6-0.4-1-0.5
		C9.6,9.6,9.3,9.5,8.9,9.4c0,0,0,0.1,0,0.1c0,0.4-0.1,0.8-0.1,1.2c0,0.4,0,0.7,0,1c0,0.2,0,0.5,0,0.8c0,0.3,0,0.5,0.1,0.8v1.4
		C9,15,9,15.3,9.1,15.7c0,0.3,0.1,0.6,0.1,0.9c0,0.4,0,0.7,0,1c0,0.3-0.1,0.7-0.2,1.1c0,0,0.1,0.1,0.1,0.2c0.1,0.1,0.1,0.2,0.1,0.3
		l0,0.1c0,0,0,0,0.1,0C9.4,19.2,9.6,19.1,9.8,19z"/>
	<path class="st1" d="M7.3,20.8C7.3,20.8,7.3,20.8,7.3,20.8c0-0.1,0-0.1,0-0.1c0-0.1,0-0.2,0-0.3c0-0.1,0.1-0.1,0.1-0.2
		c-0.1-0.1-0.1-0.2-0.2-0.5c0-0.1,0-0.1,0-0.2l-0.2,0c-0.3-0.2-0.6-0.3-0.8-0.4C6,19,5.8,18.9,5.6,18.9c-0.2-0.1-0.4-0.2-0.6-0.4
		c-0.2-0.2-0.4-0.4-0.7-0.8c-0.3-0.3-0.5-0.6-0.6-0.8c-0.2-0.2-0.3-0.5-0.2-0.9c0,0,0-0.1,0-0.2c0-0.1,0-0.2-0.1-0.3
		C3,15.3,2.8,15,2.8,14.7c-0.1-0.3-0.1-0.6-0.1-1c0-0.3,0.1-0.6,0.1-0.8c0.1-0.2,0.2-0.4,0.2-0.7c0,0,0-0.1,0.1-0.3
		c0-0.2,0-0.3,0.1-0.4c0-0.2,0.1-0.4,0.2-0.5c0.1-0.1,0.2-0.2,0.4-0.3c0.1-0.1,0.3-0.2,0.4-0.3c0.1-0.1,0.3-0.2,0.4-0.4
		c0.1-0.1,0.2-0.3,0.3-0.3C4.9,9.6,5,9.6,5.1,9.5c0.1,0,0.2-0.1,0.3-0.1c0.1,0,0.2-0.1,0.4-0.1c0.2,0,0.3-0.1,0.3-0.2
		c0.1-0.1,0.2-0.2,0.3-0.2c0.2,0,0.5,0,0.8,0.1c0,0,0,0,0-0.1c0,0-0.1-0.2-0.1-0.4C7,8.3,7,8,6.9,7.8c0-0.2-0.1-0.4-0.1-0.6l-0.2,0
		C6.3,7.3,5.9,7.4,5.6,7.4c-0.4,0-0.7,0.1-1,0.3C4.4,7.8,4.2,7.9,4.1,8C4,8.1,3.9,8.2,3.8,8.4C3.7,8.5,3.5,8.6,3.4,8.8
		C3.2,8.9,3,9,2.7,9.1C2.7,9.2,2.6,9.3,2.4,9.5C2.3,9.7,2.2,10,2.1,10.2c-0.1,0.2-0.2,0.5-0.3,0.7c-0.1,0.2-0.2,0.4-0.2,0.5
		c0,0-0.1,0.1-0.1,0.2c-0.1,0.1-0.1,0.3-0.2,0.5C1.1,12.3,1,12.5,1,12.7c-0.1,0.2-0.1,0.3-0.1,0.4c0,0.3,0,0.7,0,1.2
		c0,0.4,0,0.7,0,0.9c0,0.2,0.1,0.4,0.1,0.5c0.1,0.1,0.1,0.2,0.2,0.3c0.1,0.1,0.2,0.1,0.2,0.2c0.1,0.1,0.2,0.2,0.3,0.4
		c0.1,0.2,0.2,0.4,0.3,0.6c0,0.2,0.1,0.4,0.1,0.7c0,0.2,0.1,0.4,0.2,0.6c0.1,0.2,0.2,0.4,0.5,0.5l0.6,0.3l1.1,1.1
		c0.4,0.3,0.7,0.5,1,0.6c0.3,0.1,0.7,0.2,1.1,0.2l0.8,0c0-0.1,0-0.1-0.1-0.2C7.4,20.9,7.3,20.9,7.3,20.8z"/>
	<path class="st1" d="M8.6,27.8c0.1,0,0.2,0,0.3,0c0.1,0,0.2-0.1,0.3-0.2c0-0.1,0-0.2,0-0.3L9,22.4l0.1-1.2l0-0.4
		c0-0.2,0-0.3-0.1-0.5c-0.1-0.1-0.1-0.3-0.1-0.4l0.2-0.6l0-0.1c0-0.1,0-0.2-0.1-0.3c-0.1-0.1-0.1-0.2-0.1-0.2
		C9,18.3,9,17.9,9.1,17.6c0-0.3,0-0.7,0-1c0-0.3,0-0.6-0.1-0.9c0-0.3-0.1-0.6-0.2-1v-1.4c0-0.3,0-0.5-0.1-0.8c0-0.3,0-0.5,0-0.8
		c0-0.3,0-0.7,0-1c0-0.4,0-0.8,0.1-1.2c0,0,0-0.1,0-0.1c0-0.1,0-0.3-0.1-0.4C8.7,8.9,8.7,8.8,8.7,8.6L8.9,8c0-0.2,0-0.5,0-0.7
		c0-0.1,0-0.2,0-0.3c0-0.3-0.1-0.6-0.1-0.9c0-0.7-0.1-1.4-0.1-2.1c0-0.7,0-1.4,0-2.2V1C8.5,0.8,8.4,0.6,8.3,0.6
		c-0.1,0-0.2-0.1-0.4-0.1c-0.2,0-0.4,0-0.5,0.1C7.4,0.7,7.3,0.7,7.2,0.8C7.2,0.9,7.1,1,7.1,1.1c0,0.1,0,0.2,0,0.3v0
		c0,0.1-0.1,0.2-0.2,0.2C7,2,7,2.2,7.1,2.4c0.1,0.2,0.1,0.4,0.1,0.7l-0.3,2c0,0.1,0,0.2,0,0.3c0,0.1,0,0.2,0,0.4L6.7,6.5
		c0,0.1,0,0.2,0.1,0.5c0,0.1,0,0.1,0,0.2c0,0.2,0.1,0.4,0.1,0.6C7,8,7,8.3,7.1,8.5c0.1,0.2,0.1,0.4,0.1,0.4c0,0,0,0,0,0.1
		c0,0,0,0,0,0c0,0,0,0.1,0,0.2c0,0.1,0,0.2,0,0.3c0,0.2,0,0.4,0,0.6l-0.1,0.5c0,0.3,0,0.6,0.1,0.9c0.1,0.3,0.1,0.6,0.1,0.8
		c0,0.1,0,0.3,0,0.4c0,0.2-0.1,0.3-0.1,0.5c0,0.2-0.1,0.3-0.1,0.5c0,0.2,0,0.3,0,0.5c0,0.1,0,0.2,0,0.4s0.1,0.3,0.1,0.4
		c0,0.1,0.1,0.3,0.1,0.4c0,0.1,0,0.3,0,0.4l-0.3,2c0,0.1,0,0.3,0,0.5c0,0.2,0,0.5,0.1,0.8c0,0.2,0.1,0.4,0.1,0.5c0,0.1,0,0.2,0,0.2
		c0.1,0.2,0.1,0.4,0.2,0.5c-0.1,0.1-0.1,0.2-0.1,0.2c0,0.1,0,0.2,0,0.3c0,0,0,0,0,0.1c0,0,0,0,0,0.1c0,0,0,0.1,0.1,0.2
		c0,0.1,0,0.1,0.1,0.2c0,0,0,0.1,0,0.1L7.3,22l0.2,1.7l-0.4,1.9l0.1,0.7v0.3c0,0.1,0,0.2,0.1,0.3c0,0.1,0,0.1,0.1,0.1
		c0,0.1,0,0.2,0,0.3c0,0.2,0,0.2,0,0.3c0.1,0,0.2,0.1,0.3,0.1c0.1,0,0.2,0.1,0.4,0.1C8.4,27.8,8.5,27.8,8.6,27.8z"/>
</g>
</svg>
